<svg width="678" height="473" viewBox="0 0 678 473" fill="none" xmlns="http://www.w3.org/2000/svg">
<path fill-rule="evenodd" clip-rule="evenodd" d="M85.9613 284.044C85.9613 284.044 617.025 286.456 620.122 285.999C623.218 285.541 645.371 177.804 648.381 161.632C651.391 145.459 655.732 127.282 652.813 125.64C649.894 123.999 352.166 129.796 308.345 128.503C264.524 127.21 185.768 126.207 153.343 129.233C120.919 132.258 94.9278 128.784 80.5435 129.941C66.1596 131.097 56.3431 130.797 56.3431 130.797L85.9613 284.044Z" fill="#E8EFD8"/>
<path d="M158.731 134.767C190.656 131.875 267.996 132.794 310.938 133.999C332.372 134.6 416.039 133.496 494.788 132.434C534.143 131.903 572.251 131.383 600.698 131.092C614.921 130.947 626.736 130.86 635.086 130.857C639.259 130.855 642.578 130.876 644.902 130.92C646.062 130.943 646.991 130.971 647.661 131.008C647.994 131.026 648.287 131.048 648.523 131.074C648.639 131.087 648.768 131.105 648.894 131.13C648.941 131.139 649.115 131.171 649.322 131.253L649.537 131.353L649.73 131.468C650.66 132.072 651.034 133.092 651.207 133.835C651.409 134.703 651.464 135.74 651.441 136.838C651.394 139.051 651.017 141.938 650.476 145.161C649.394 151.596 647.567 159.842 646.104 167.416C644.619 175.104 638.432 204.473 632.239 231.966C629.141 245.714 626.038 259.013 623.518 268.908C622.259 273.85 621.139 277.971 620.233 280.88C619.782 282.328 619.369 283.522 619.007 284.381C618.83 284.802 618.636 285.209 618.426 285.542C618.323 285.706 618.175 285.915 617.98 286.108C617.815 286.27 617.415 286.625 616.792 286.714C616.601 286.741 616.271 286.747 616.049 286.751C615.743 286.757 615.316 286.762 614.777 286.767C613.697 286.776 612.144 286.782 610.153 286.787C606.169 286.796 600.417 286.796 593.152 286.789C578.62 286.774 558.029 286.73 533.405 286.664C484.158 286.534 418.781 286.319 353.498 286.091C288.216 285.862 223.028 285.62 174.161 285.435C149.728 285.343 129.375 285.265 115.13 285.21C108.008 285.183 102.412 285.161 98.5972 285.146C96.69 285.139 95.2275 285.132 94.2421 285.128C93.7497 285.126 93.376 285.125 93.1257 285.124C93.0006 285.124 92.9055 285.123 92.8425 285.123C92.811 285.123 92.787 285.123 92.7712 285.123C92.7635 285.123 92.7575 285.123 92.7536 285.123C92.7497 285.123 92.7478 285.1 92.7552 283.282L92.7477 285.123C91.8731 285.12 91.1215 284.501 90.9503 283.643L61.9766 138.486C61.867 137.936 62.014 137.366 62.3757 136.938C62.7372 136.51 63.274 136.271 63.8339 136.287L63.8348 136.286L63.8397 136.286C63.8436 136.286 63.8507 136.287 63.8593 136.287C63.8763 136.287 63.9025 136.288 63.9374 136.289C64.0083 136.291 64.1157 136.293 64.2579 136.295C64.5421 136.301 64.9665 136.308 65.5209 136.312C66.6299 136.321 68.259 136.321 70.3276 136.288C74.4657 136.221 80.3603 136.017 87.3689 135.469C94.5491 134.908 104.618 135.46 116.62 135.779C128.7 136.1 142.938 136.198 158.731 134.767Z" stroke="#215E48" stroke-width="3.68054" stroke-miterlimit="1.5" stroke-linecap="round" stroke-linejoin="round"/>
<path d="M231.727 282.023C231.727 282.023 211.486 193.108 188.522 183.897" stroke="#215E48" stroke-width="3.68187" stroke-miterlimit="1.5" stroke-linecap="round" stroke-linejoin="round"/>
<path fill-rule="evenodd" clip-rule="evenodd" d="M215.972 240.377C215.972 240.377 214.316 241.936 207.921 241.388C201.223 240.813 201.644 237.155 201.644 237.155C187.896 237.642 190.356 224.389 190.356 224.389C190.356 224.389 187.188 225.061 184.771 213.897C182.353 202.734 191.36 200.339 191.36 200.339C191.36 200.339 188.862 199.888 195.1 190.26C201.337 180.633 214.702 188.265 214.702 188.265C214.702 188.265 214.558 185.578 225.183 187.039C235.808 188.499 238.188 202.566 238.188 202.566C238.188 202.566 242.207 204.263 242.034 215.999C241.861 227.736 227.363 229.21 227.363 229.21C224.764 244.653 215.972 240.377 215.972 240.377C215.972 240.377 214.854 266.352 216.952 282.218L215.972 240.377Z" fill="#A9C36F"/>
<path d="M215.972 240.377C215.972 240.377 214.316 241.936 207.921 241.388C201.223 240.813 201.644 237.155 201.644 237.155C187.896 237.642 190.356 224.389 190.356 224.389C190.356 224.389 187.188 225.061 184.771 213.897C182.353 202.734 191.36 200.339 191.36 200.339C191.36 200.339 188.862 199.888 195.1 190.26C201.337 180.633 214.702 188.265 214.702 188.265C214.702 188.265 214.558 185.578 225.183 187.038C235.808 188.499 238.188 202.566 238.188 202.566C238.188 202.566 242.207 204.263 242.034 215.999C241.861 227.736 227.363 229.21 227.363 229.21C224.764 244.653 215.972 240.377 215.972 240.377ZM215.972 240.377C215.972 240.377 214.854 266.352 216.952 282.218" stroke="#215E48" stroke-width="3.68014" stroke-miterlimit="1.5" stroke-linecap="round" stroke-linejoin="round"/>
<path d="M401.95 9.78936C403.868 9.76325 405.399 7.96284 405.369 5.76803C405.34 3.57322 403.761 1.81515 401.842 1.84126C399.924 1.86738 398.393 3.66779 398.423 5.8626C398.452 8.05741 400.031 9.81548 401.95 9.78936Z" stroke="#215E48" stroke-width="3.68187" stroke-miterlimit="1.5" stroke-linecap="round" stroke-linejoin="round"/>
<path d="M452.689 26.6799C453.875 26.6638 454.822 25.6018 454.804 24.3081C454.787 23.0143 453.812 21.9786 452.626 21.9947C451.44 22.0108 450.493 23.0727 450.511 24.3665C450.528 25.6603 451.503 26.696 452.689 26.6799Z" stroke="#215E48" stroke-width="3.68187" stroke-miterlimit="1.5" stroke-linecap="round" stroke-linejoin="round"/>
<path d="M474.999 48.5563C476.438 48.5367 477.589 47.468 477.572 46.1694C477.554 44.8708 476.374 43.8339 474.936 43.8535C473.498 43.873 472.346 44.9417 472.363 46.2403C472.381 47.539 473.561 48.5758 474.999 48.5563Z" stroke="#215E48" stroke-width="3.68187" stroke-miterlimit="1.5" stroke-linecap="round" stroke-linejoin="round"/>
<path d="M378.269 33.5785C379.665 33.5595 380.782 32.4573 380.764 31.1167C380.746 29.7761 379.6 28.7048 378.204 28.7238C376.808 28.7428 375.691 29.845 375.709 31.1856C375.727 32.5261 376.873 33.5975 378.269 33.5785Z" stroke="#215E48" stroke-width="3.68187" stroke-miterlimit="1.5" stroke-linecap="round" stroke-linejoin="round"/>
<path d="M365.913 55.6362C366.744 55.6249 367.408 54.8435 367.395 53.891C367.382 52.9385 366.698 52.1755 365.866 52.1868C365.035 52.1981 364.371 52.9795 364.384 53.932C364.397 54.8845 365.081 55.6475 365.913 55.6362Z" stroke="#215E48" stroke-width="3.68187" stroke-miterlimit="1.5" stroke-linecap="round" stroke-linejoin="round"/>
<path d="M662.736 108.893C664.363 108.871 665.661 107.318 665.636 105.424C665.61 103.53 664.271 102.012 662.644 102.034C661.017 102.057 659.719 103.61 659.744 105.504C659.77 107.398 661.11 108.915 662.736 108.893Z" stroke="#215E48" stroke-width="3.68187" stroke-miterlimit="1.5" stroke-linecap="round" stroke-linejoin="round"/>
<path d="M631.407 56.2871C633.357 56.2606 634.911 54.2357 634.878 51.7644C634.845 49.2931 633.237 47.3112 631.286 47.3378C629.336 47.3643 627.782 49.3892 627.815 51.8605C627.849 54.3318 629.457 56.3137 631.407 56.2871Z" stroke="#215E48" stroke-width="3.68187" stroke-miterlimit="1.5" stroke-linecap="round" stroke-linejoin="round"/>
<path d="M630.432 35.1597C631.291 35.148 631.978 34.3902 631.966 33.4671C631.953 32.544 631.246 31.8052 630.387 31.8169C629.527 31.8286 628.84 32.5864 628.853 33.5095C628.865 34.4326 629.572 35.1714 630.432 35.1597Z" stroke="#215E48" stroke-width="3.68187" stroke-miterlimit="1.5" stroke-linecap="round" stroke-linejoin="round"/>
<path d="M255.13 99.1212C256.359 99.1045 257.339 97.8396 257.318 96.2961C257.297 94.7526 256.284 93.5149 255.055 93.5316C253.826 93.5483 252.846 94.8132 252.867 96.3567C252.888 97.9002 253.901 99.138 255.13 99.1212Z" stroke="#215E48" stroke-width="3.68187" stroke-miterlimit="1.5" stroke-linecap="round" stroke-linejoin="round"/>
<path d="M253.562 116.577C254.791 116.56 255.776 115.694 255.762 114.642C255.748 113.59 254.74 112.751 253.511 112.768C252.282 112.784 251.297 113.651 251.311 114.702C251.325 115.754 252.333 116.593 253.562 116.577Z" stroke="#215E48" stroke-width="3.68187" stroke-miterlimit="1.5" stroke-linecap="round" stroke-linejoin="round"/>
<path fill-rule="evenodd" clip-rule="evenodd" d="M460.041 256.21C460.041 256.21 462.623 246.766 475.357 246.41C488.091 246.054 487.966 245.388 488.862 244.631C489.758 243.875 477.21 261.137 460.166 262.028" fill="#A6BCA4"/>
<path d="M460.041 256.21C460.041 256.21 462.623 246.766 475.357 246.41C488.091 246.054 487.966 245.388 488.862 244.631C489.758 243.875 477.21 261.137 460.166 262.028" stroke="#215E48" stroke-width="3.68187" stroke-miterlimit="1.5" stroke-linecap="round" stroke-linejoin="round"/>
<path d="M627.412 294.886C626.367 290.122 642.079 242.138 646.036 227.7C649.885 213.656 671.36 125.677 669.039 121.582C669.012 121.534 307.695 123.275 291.748 122.997C187.975 121.189 190.257 121.425 164.512 123.471C115.521 127.364 95.0961 121.808 69.8006 122.05C44.0547 122.295 42.7416 122.962 42.6171 124.346C41.2457 139.588 55.2286 167.818 58.8432 194.959C62.1628 219.884 65.5237 219.137 68.5767 244.046C71.3711 266.843 78.9757 279.14 80.2674 286.4C81.9979 296.128 68.9157 330.036 58.8827 393.004C54.3823 421.25 42.3297 459.208 53.2935 460.658C65.3791 462.255 124.878 466.63 188.316 466.54C266.244 466.43 349.741 461.634 354.003 461.713C379.655 462.192 497.583 463.063 500.501 463.857C511.017 466.719 573.034 464.818 650.297 463.766C663.262 463.59 674.363 462.943 674.614 458.536C675.871 436.447 672.848 436.859 670.403 430.706C661.386 408.02 640.835 334.418 636.769 319.705C635.758 316.045 629.29 295.271 626.346 294.666C620.681 293.502 581.582 294.058 579.042 294.103C567.757 294.305 569.6 294.755 533.383 295.249C505.279 295.631 505.52 293.564 477.364 293.947C459.087 294.196 409.722 293.66 391.167 293.154C324.001 291.324 327.907 293.13 194.758 291.767C121.125 291.013 109.234 290.347 80.283 291.965" stroke="#215E48" stroke-width="4.41683" stroke-miterlimit="1.5" stroke-linecap="round" stroke-linejoin="round"/>
<path fill-rule="evenodd" clip-rule="evenodd" d="M582.898 124.535C582.898 124.535 594.375 106.979 600.596 104.983L604.333 109.39C599.361 111.849 584.557 130.828 584.557 130.828" fill="#BDD392"/>
<path d="M582.898 124.535C582.898 124.535 594.375 106.979 600.596 104.983L604.333 109.39C599.361 111.849 584.557 130.828 584.557 130.828" stroke="#215E48" stroke-width="3.68187" stroke-miterlimit="1.5" stroke-linecap="round" stroke-linejoin="round"/>
<path fill-rule="evenodd" clip-rule="evenodd" d="M416.115 176.926C416.115 176.926 415.742 154.698 415.502 152.672C415.261 150.647 436.588 150.904 437.263 154.002C437.937 157.099 439.053 188.879 439.053 188.879" fill="#F9FBF5"/>
<path d="M416.115 176.926C416.115 176.926 415.742 154.698 415.502 152.672C415.261 150.647 436.588 150.904 437.263 154.002C437.937 157.099 439.053 188.879 439.053 188.879" stroke="#215E48" stroke-width="3.6824" stroke-miterlimit="1.5" stroke-linecap="round" stroke-linejoin="round"/>
<path fill-rule="evenodd" clip-rule="evenodd" d="M278.22 195.309C278.22 195.309 261.995 203.116 258.312 203.34C254.629 203.566 253.532 201.819 254.766 199.12C256 196.422 308.531 171.765 316.135 166.841C323.74 161.916 355.792 145.449 359.15 145.344C362.507 145.239 429.582 185.208 431.817 186.123C434.051 187.037 457.193 199.07 457.909 200.874C458.625 202.677 459.369 207.333 454.515 206.856C449.662 206.379 428.173 193.028 428.173 193.028" fill="#D4E1B7"/>
<path d="M278.22 195.309C278.22 195.309 261.995 203.116 258.312 203.34C254.629 203.566 253.532 201.819 254.766 199.12C256 196.422 308.531 171.765 316.135 166.841C323.74 161.916 355.792 145.449 359.15 145.344C362.507 145.239 429.582 185.208 431.817 186.123C434.051 187.037 457.193 199.07 457.909 200.874C458.625 202.677 459.369 207.333 454.515 206.856C449.662 206.379 428.173 193.028 428.173 193.028" stroke="#215E48" stroke-width="3.6824" stroke-miterlimit="1.5" stroke-linecap="round" stroke-linejoin="round"/>
<path fill-rule="evenodd" clip-rule="evenodd" d="M280.424 280.791C280.424 280.791 279.636 269.518 279.451 257.019C279.291 246.231 279.747 234.574 279.576 227.942C279.292 216.905 278.215 194.899 278.215 194.899C278.215 194.899 287.792 190.191 300.359 183.363C308.803 178.775 320.069 173.776 329.231 169.202C345.277 161.19 357.907 154.83 359.284 155.072C372.349 157.365 439.05 199.787 439.05 199.787C439.286 211.795 439.951 219.494 440.274 230.263C440.581 240.487 439.963 254.454 440.331 263.806C440.596 270.54 441.455 276.458 441.744 282.846" fill="#F9FBF5"/>
<path d="M280.424 280.791C280.424 280.791 279.636 269.518 279.451 257.019C279.291 246.231 279.747 234.574 279.576 227.942C279.292 216.905 278.215 194.899 278.215 194.899C278.215 194.899 287.792 190.191 300.359 183.363C308.803 178.775 320.069 173.776 329.231 169.202C345.277 161.19 357.907 154.83 359.284 155.072C372.349 157.365 439.05 199.787 439.05 199.787C439.286 211.795 439.951 219.494 440.274 230.263C440.581 240.487 439.963 254.454 440.331 263.806C440.596 270.54 441.455 276.458 441.744 282.846" stroke="#215E48" stroke-width="3.6824" stroke-miterlimit="1.5" stroke-linecap="round" stroke-linejoin="round"/>
<path fill-rule="evenodd" clip-rule="evenodd" d="M359.735 221.271C357.399 221.434 335.599 218.006 335.88 199.352C336.161 180.699 352.34 177.906 359.901 178.004C367.462 178.101 381.371 183.972 380.813 198.934C380.255 213.896 369.698 220.578 359.735 221.271Z" fill="#E8EFD8" stroke="#215E48" stroke-width="3.6824" stroke-miterlimit="1.5" stroke-linecap="round" stroke-linejoin="round"/>
<path d="M358.07 178.034C358.07 178.034 361.747 198.765 362.197 214.407C362.265 216.742 362.26 218.963 362.161 220.985" stroke="#215E48" stroke-width="3.6824" stroke-miterlimit="1.5" stroke-linecap="round" stroke-linejoin="round"/>
<path d="M335.855 198.11C335.855 198.11 346.763 201.524 380.832 198.244" stroke="#215E48" stroke-width="3.6824" stroke-miterlimit="1.5" stroke-linecap="round" stroke-linejoin="round"/>
<path fill-rule="evenodd" clip-rule="evenodd" d="M342.922 282.067C342.922 282.067 342.581 267.576 342.705 259.831C342.83 252.085 343.664 245.256 344.018 240.2C344.373 235.144 362.515 236.714 362.515 236.714C362.515 236.714 361.551 236.932 368.79 237.528C376.028 238.124 371.325 261.602 372.556 271.749C373.788 281.897 373.118 283.613 373.118 283.613" fill="#E8EFD8"/>
<path d="M342.922 282.067C342.922 282.067 342.581 267.576 342.705 259.831C342.83 252.085 343.664 245.256 344.018 240.2C344.373 235.144 362.515 236.714 362.515 236.714C362.515 236.714 361.551 236.932 368.79 237.528C376.028 238.124 371.325 261.602 372.556 271.749C373.788 281.897 373.118 283.613 373.118 283.613" stroke="#215E48" stroke-width="3.6824" stroke-miterlimit="1.5" stroke-linecap="round" stroke-linejoin="round"/>
<path fill-rule="evenodd" clip-rule="evenodd" d="M349.614 252.012C349.614 252.012 361.303 251.548 364.224 251.596C367.146 251.644 366.785 244.966 365.875 244.057C364.964 243.149 349.537 243.411 349.537 243.411L349.614 252.012Z" stroke="#215E48" stroke-width="3.6824" stroke-miterlimit="1.5" stroke-linecap="round" stroke-linejoin="round"/>
<path d="M295.176 131.217L314.427 167.184" stroke="#215E48" stroke-width="3.6824" stroke-miterlimit="1.5" stroke-linecap="round" stroke-linejoin="round"/>
<path d="M317.359 165.342C317.359 165.342 324.418 86.2386 286 73.2457" stroke="#215E48" stroke-width="3.6824" stroke-miterlimit="1.5" stroke-linecap="round" stroke-linejoin="round"/>
<path d="M307.467 93.8385C307.467 93.8385 305.81 75.3138 309.958 67.3324" stroke="#215E48" stroke-width="3.6824" stroke-miterlimit="1.5" stroke-linecap="round" stroke-linejoin="round"/>
<path d="M317.648 133.509C317.648 133.509 323.737 111.646 328.325 105.999" stroke="#215E48" stroke-width="3.6824" stroke-miterlimit="1.5" stroke-linecap="round" stroke-linejoin="round"/>
<path fill-rule="evenodd" clip-rule="evenodd" d="M413.947 77.6073C413.947 77.6073 406.467 82.6381 406.365 96.5523C406.365 96.5523 419.85 90.8174 421.015 79.599C421.015 79.599 418.327 91.1542 424.831 102.565C424.831 102.565 436.235 91.4149 428.816 80.4336C428.816 80.4336 433.105 96.425 442.684 100.302C442.684 100.302 443.737 86.9316 433.064 78.1468C433.064 78.1468 447.8 89.3068 453.845 84.0343C453.845 84.0343 447.641 72.7574 436.956 72.2723C436.956 72.2723 459.502 68.3747 458.092 62.109C456.683 55.8438 435.939 62.1983 435.939 62.1983C435.939 62.1983 449.17 48.7647 446.61 39.7038C446.61 39.7038 432.998 44.5174 429.093 57.8825C429.093 57.8825 432.186 40.4402 425.909 29.1223C425.909 29.1223 418.617 38.6037 420.729 56.0966C420.729 56.0966 417.05 39.552 402.878 34.5166C402.878 34.5166 402.495 52.9234 413.699 60.2914C413.699 60.2914 399.281 54.7833 391.188 57.9635C391.188 57.9635 390.822 67.839 412.44 68.958C412.44 68.958 398.356 68.8822 394.037 80.2874C394.037 80.2874 406.053 84.8214 413.947 77.6073Z" fill="#F9FBF5" stroke="#215E48" stroke-width="3.47263" stroke-miterlimit="1.5" stroke-linecap="round" stroke-linejoin="round"/>
<path d="M425.52 152.046C425.52 152.046 425.181 120.362 424.844 102.078" stroke="#215E48" stroke-width="3.6824" stroke-miterlimit="1.5" stroke-linecap="round" stroke-linejoin="round"/>
<path d="M424.158 79.5566C430.345 79.4723 435.293 74.4482 435.211 68.335C435.129 62.2217 430.046 57.3342 423.86 57.4184C417.673 57.5026 412.724 62.5267 412.807 68.64C412.889 74.7533 417.971 79.6408 424.158 79.5566Z" fill="#E8EFD8" stroke="#215E48" stroke-width="3.29817" stroke-miterlimit="1.5" stroke-linecap="round" stroke-linejoin="round"/>
<path fill-rule="evenodd" clip-rule="evenodd" d="M181.285 282.707C181.285 282.707 186.33 265.871 183.358 252.732C183.358 252.732 173.035 255.894 166.749 251.298C166.749 251.298 162.467 260.562 153.05 257.829C143.633 255.095 144.27 241.918 145.937 238.987C147.603 236.056 136.252 234.116 138.892 223.507C141.532 212.898 149.725 214.603 149.725 214.603C149.725 214.603 150.602 204.793 160.017 204.581C169.432 204.369 166.67 205.129 166.67 205.129C166.67 205.129 172.381 200.583 178.043 200.862C183.705 201.14 185.782 206.615 185.782 206.615C185.782 206.615 189.702 207.151 193.539 211.632C197.375 216.114 195.981 219.996 195.981 219.996C195.981 219.996 201.475 225.983 199.931 231.708C198.386 237.432 195.488 242.559 186.97 243.285C186.97 243.285 187.749 249.68 183.358 252.732" fill="#BFD293"/>
<path d="M181.285 282.707C181.285 282.707 186.33 265.871 183.358 252.732M183.358 252.732C183.358 252.732 173.035 255.894 166.749 251.298C166.749 251.298 162.467 260.562 153.05 257.829C143.633 255.095 144.27 241.918 145.937 238.987C147.603 236.056 136.252 234.116 138.892 223.507C141.532 212.898 149.725 214.603 149.725 214.603C149.725 214.603 150.602 204.793 160.017 204.581C169.432 204.369 166.67 205.129 166.67 205.129C166.67 205.129 172.381 200.583 178.043 200.862C183.705 201.14 185.782 206.615 185.782 206.615C185.782 206.615 189.702 207.151 193.539 211.632C197.375 216.114 195.981 219.996 195.981 219.996C195.981 219.996 201.475 225.983 199.931 231.708C198.386 237.432 195.488 242.559 186.97 243.285C186.97 243.285 187.749 249.68 183.358 252.732Z" stroke="#215E48" stroke-width="3.68187" stroke-miterlimit="1.5" stroke-linecap="round" stroke-linejoin="round"/>
<path d="M313.521 451.079C313.521 451.079 315.593 455.72 320.137 456.105C324.681 456.491 380.681 455.866 384.919 455.551C389.157 455.235 394.076 450.367 394.076 450.367" stroke="#215E48" stroke-width="3.68187" stroke-miterlimit="1.5" stroke-linecap="round" stroke-linejoin="round"/>
<path d="M165.701 378.476C167.06 368.857 166.189 372.266 167.321 362.533" stroke="#215E48" stroke-width="3.68004" stroke-miterlimit="1.5" stroke-linecap="round" stroke-linejoin="round"/>
<path d="M203.263 378.08C202.975 375.384 204.19 365.297 204.754 360.257" stroke="#215E48" stroke-width="3.68004" stroke-miterlimit="1.5" stroke-linecap="round" stroke-linejoin="round"/>
<path d="M248.571 378.296C248.689 376.768 249.47 364.28 249.82 361.415" stroke="#215E48" stroke-width="3.68004" stroke-miterlimit="1.5" stroke-linecap="round" stroke-linejoin="round"/>
<path d="M280.412 378.241C280.239 370.787 280.832 372.066 280.682 360.997" stroke="#215E48" stroke-width="3.68004" stroke-miterlimit="1.5" stroke-linecap="round" stroke-linejoin="round"/>
<path d="M240.863 396.343C241.583 388.922 242.02 390.263 243.197 379.256" stroke="#215E48" stroke-width="3.68005" stroke-miterlimit="1.5" stroke-linecap="round" stroke-linejoin="round"/>
<path d="M317.021 378.085C316.79 376.103 316.725 373.565 316.548 360.511" stroke="#215E48" stroke-width="3.68004" stroke-miterlimit="1.5" stroke-linecap="round" stroke-linejoin="round"/>
<path d="M355.117 378.778C355.007 377.662 354.062 367.594 353.9 366.075C353.512 362.443 354.003 365.423 353.646 361.758" stroke="#215E48" stroke-width="3.68004" stroke-miterlimit="1.5" stroke-linecap="round" stroke-linejoin="round"/>
<path d="M388.642 379.454C386.947 362.058 387.245 365.781 386.76 361.309" stroke="#215E48" stroke-width="3.68004" stroke-miterlimit="1.5" stroke-linecap="round" stroke-linejoin="round"/>
<path d="M423.319 378.532C422.532 368.066 422.803 371.241 421.957 360.832" stroke="#215E48" stroke-width="3.68004" stroke-miterlimit="1.5" stroke-linecap="round" stroke-linejoin="round"/>
<path d="M455.036 378.442C454.939 376.796 453.787 362.027 453.279 360.408" stroke="#215E48" stroke-width="3.68004" stroke-miterlimit="1.5" stroke-linecap="round" stroke-linejoin="round"/>
<path d="M495.784 377.814C495.162 376.332 496.151 377.914 492.01 359.883" stroke="#215E48" stroke-width="3.68004" stroke-miterlimit="1.5" stroke-linecap="round" stroke-linejoin="round"/>
<path d="M536.69 378.242C535.46 364.368 534.789 362.135 534.394 358.579" stroke="#215E48" stroke-width="3.68004" stroke-miterlimit="1.5" stroke-linecap="round" stroke-linejoin="round"/>
<path d="M500.128 394.655C499.311 391.592 499.156 392.858 497.247 380.009" stroke="#215E48" stroke-width="3.68004" stroke-miterlimit="1.5" stroke-linecap="round" stroke-linejoin="round"/>
<path d="M462.043 395.321C460.859 389.388 460.271 385.227 459.087 379.294" stroke="#215E48" stroke-width="3.68004" stroke-miterlimit="1.5" stroke-linecap="round" stroke-linejoin="round"/>
<path d="M420.727 395.335C419.555 391.316 418.964 387.205 418.324 380.092" stroke="#215E48" stroke-width="3.68004" stroke-miterlimit="1.5" stroke-linecap="round" stroke-linejoin="round"/>
<path d="M545.739 394.452C545.316 395.424 543.898 380.725 543.75 379.379" stroke="#215E48" stroke-width="3.68004" stroke-miterlimit="1.5" stroke-linecap="round" stroke-linejoin="round"/>
<path fill-rule="evenodd" clip-rule="evenodd" d="M93.6825 304.23C93.6825 304.23 72.9914 394.312 75.2513 396.706C77.5115 399.1 248.52 397.172 264.53 396.654C280.54 396.136 461.164 394.743 473.334 395.361C485.503 395.98 637.944 397.122 640.153 395.36C642.363 393.597 620.032 310.639 619.067 308.268C618.103 305.897 615.918 303.618 603.054 305.722C590.191 307.825 254.38 304.598 254.38 304.598C254.38 304.598 105.013 303.371 93.6825 304.23Z" stroke="#215E48" stroke-width="4.41536" stroke-miterlimit="1.5" stroke-linecap="round" stroke-linejoin="round"/>
<path d="M89.0867 321.667C101.101 322.643 101.153 320.949 113.15 322.357C127.153 323.999 132.282 323.852 148.784 323.415C182.419 322.525 182.422 322.671 185.653 322.913C189.992 323.239 209.515 322.253 225.767 323.24C255.16 325.025 255.149 322.892 284.555 323.254C299.719 323.441 305.805 322.978 315.902 323.175C335.406 323.556 335.409 324.989 354.839 323.321C366.186 322.347 371.751 324.165 381.975 324.434C384.065 324.489 384.242 323.738 408.322 323.827C420.938 323.874 461.043 323.456 512.68 322.923C513.758 322.912 522.886 322.576 526.155 322.69C532.643 322.915 532.588 323.218 539.436 323.435C555.851 323.957 555.779 324.707 572.203 324.978C579.886 325.105 583.686 326.403 596.487 326.121C609.393 325.836 609.371 326.054 622.264 325.902" stroke="#215E48" stroke-width="3.68004" stroke-miterlimit="1.5" stroke-linecap="round" stroke-linejoin="round"/>
<path d="M563.802 323.842C563.312 315.928 563.422 315.934 561.768 308.214" stroke="#215E48" stroke-width="3.68004" stroke-miterlimit="1.5" stroke-linecap="round" stroke-linejoin="round"/>
<path d="M526.637 321.468C525.372 306.447 525.524 309.65 525.359 306.78" stroke="#215E48" stroke-width="3.68004" stroke-miterlimit="1.5" stroke-linecap="round" stroke-linejoin="round"/>
<path d="M493.143 322.879C493.234 315.191 493.266 315.882 493.23 308.178" stroke="#215E48" stroke-width="3.68004" stroke-miterlimit="1.5" stroke-linecap="round" stroke-linejoin="round"/>
<path d="M460.337 323.323C459.153 315.766 459.275 315.774 458.161 308.195" stroke="#215E48" stroke-width="3.68004" stroke-miterlimit="1.5" stroke-linecap="round" stroke-linejoin="round"/>
<path d="M426.393 323.427C426.203 311.405 426.237 311.438 425.833 306.45" stroke="#215E48" stroke-width="3.68004" stroke-miterlimit="1.5" stroke-linecap="round" stroke-linejoin="round"/>
<path d="M389.383 323.691C388.873 318.27 388.455 313.394 387.772 307.101" stroke="#215E48" stroke-width="3.68004" stroke-miterlimit="1.5" stroke-linecap="round" stroke-linejoin="round"/>
<path d="M354.356 322.899C354.914 315.084 354.839 315.113 355.679 307.311" stroke="#215E48" stroke-width="3.68004" stroke-miterlimit="1.5" stroke-linecap="round" stroke-linejoin="round"/>
<path d="M322.109 323.079C322.695 314.353 323.037 314.422 323.823 305.748" stroke="#215E48" stroke-width="3.68004" stroke-miterlimit="1.5" stroke-linecap="round" stroke-linejoin="round"/>
<path d="M288.797 323.055C289.206 313.974 289.191 314.016 289.812 304.963" stroke="#215E48" stroke-width="3.68004" stroke-miterlimit="1.5" stroke-linecap="round" stroke-linejoin="round"/>
<path d="M252.683 323.776C253.813 314.234 253.744 314.273 255.055 304.726" stroke="#215E48" stroke-width="3.68005" stroke-miterlimit="1.5" stroke-linecap="round" stroke-linejoin="round"/>
<path d="M215.037 322.372C216.219 314.692 216.242 313.08 216.419 306.386" stroke="#215E48" stroke-width="3.68004" stroke-miterlimit="1.5" stroke-linecap="round" stroke-linejoin="round"/>
<path d="M180.491 322.287C180.788 315.323 180.838 315.241 181.701 306.635" stroke="#215E48" stroke-width="3.68004" stroke-miterlimit="1.5" stroke-linecap="round" stroke-linejoin="round"/>
<path d="M148.737 322.241C150.935 312.525 151.17 312.579 151.909 305.841" stroke="#215E48" stroke-width="3.68004" stroke-miterlimit="1.5" stroke-linecap="round" stroke-linejoin="round"/>
<path d="M117.938 322.046C118.001 320.837 118.494 311.308 118.915 306.947" stroke="#215E48" stroke-width="3.68004" stroke-miterlimit="1.5" stroke-linecap="round" stroke-linejoin="round"/>
<path d="M87.3577 338.298C184.479 343.059 181.477 338.227 281.665 338.771C319.702 338.978 448.4 339.179 459.591 339.111C550.461 338.562 626.742 340.11 628.128 340.18" stroke="#215E48" stroke-width="3.68004" stroke-miterlimit="1.5" stroke-linecap="round" stroke-linejoin="round"/>
<path d="M144.124 324.279C144.117 332.254 144.452 330.897 143.471 338.826" stroke="#215E48" stroke-width="3.68004" stroke-miterlimit="1.5" stroke-linecap="round" stroke-linejoin="round"/>
<path d="M177.476 323.346C176.375 331.51 175.841 331.37 174.663 339.569" stroke="#215E48" stroke-width="3.68004" stroke-miterlimit="1.5" stroke-linecap="round" stroke-linejoin="round"/>
<path d="M198.404 379.77C197.303 387.933 196.769 387.793 195.591 395.993" stroke="#215E48" stroke-width="3.68004" stroke-miterlimit="1.5" stroke-linecap="round" stroke-linejoin="round"/>
<path d="M156.46 379.544C155.359 387.707 154.825 387.568 153.647 395.767" stroke="#215E48" stroke-width="3.68004" stroke-miterlimit="1.5" stroke-linecap="round" stroke-linejoin="round"/>
<path d="M210.544 323.38C209.225 332.613 208.552 329.889 207.473 339.168" stroke="#215E48" stroke-width="3.68004" stroke-miterlimit="1.5" stroke-linecap="round" stroke-linejoin="round"/>
<path d="M241.986 324.508C241.909 330.706 241.81 330.664 241.419 336.864" stroke="#215E48" stroke-width="3.65236" stroke-miterlimit="1.5" stroke-linecap="round" stroke-linejoin="round"/>
<path d="M274.842 337.382C275.055 331.906 274.97 333.776 274.853 325.192" stroke="#215E48" stroke-width="3.68004" stroke-miterlimit="1.5" stroke-linecap="round" stroke-linejoin="round"/>
<path d="M306.963 338.025C308.065 328.494 307.808 329.859 307.925 323.197" stroke="#215E48" stroke-width="3.68004" stroke-miterlimit="1.5" stroke-linecap="round" stroke-linejoin="round"/>
<path d="M341.567 339.712C340.786 331.849 340.871 331.896 340.023 324.853" stroke="#215E48" stroke-width="3.68004" stroke-miterlimit="1.5" stroke-linecap="round" stroke-linejoin="round"/>
<path d="M376.557 338.14C375.163 329.826 375.929 332.773 374.441 324.488" stroke="#215E48" stroke-width="3.68004" stroke-miterlimit="1.5" stroke-linecap="round" stroke-linejoin="round"/>
<path d="M410.75 338.378C409.65 331.975 409.741 332.026 408.341 325.712" stroke="#215E48" stroke-width="3.68004" stroke-miterlimit="1.5" stroke-linecap="round" stroke-linejoin="round"/>
<path d="M449.012 338.369C448.712 333.039 449.593 332.842 447.539 323.299" stroke="#215E48" stroke-width="3.68004" stroke-miterlimit="1.5" stroke-linecap="round" stroke-linejoin="round"/>
<path d="M481.949 338.32C480.145 329.303 480.035 329.385 478.244 323.654" stroke="#215E48" stroke-width="3.68004" stroke-miterlimit="1.5" stroke-linecap="round" stroke-linejoin="round"/>
<path d="M513.831 339.333C511.577 325.776 511.571 325.782 511.392 324.601" stroke="#215E48" stroke-width="3.68004" stroke-miterlimit="1.5" stroke-linecap="round" stroke-linejoin="round"/>
<path d="M552.904 338.253C551.744 330.098 552.212 332.144 550.696 324.07" stroke="#215E48" stroke-width="3.68004" stroke-miterlimit="1.5" stroke-linecap="round" stroke-linejoin="round"/>
<path d="M588.092 338.753C587.509 335.072 586.926 331.39 586.342 327.708" stroke="#215E48" stroke-width="3.68004" stroke-miterlimit="1.5" stroke-linecap="round" stroke-linejoin="round"/>
<path d="M81.7913 359.909C100.534 360.354 283.116 360.65 420.41 359.787C491.438 359.34 556.004 357.507 632.131 357.968" stroke="#215E48" stroke-width="3.68004" stroke-miterlimit="1.5" stroke-linecap="round" stroke-linejoin="round"/>
<path d="M549.361 339.438C549.488 340.963 550.195 346.589 552.695 357.793" stroke="#215E48" stroke-width="3.68004" stroke-miterlimit="1.5" stroke-linecap="round" stroke-linejoin="round"/>
<path d="M517.244 358.635C516.638 353.154 514.623 340.577 514.3 338.432" stroke="#215E48" stroke-width="3.68004" stroke-miterlimit="1.5" stroke-linecap="round" stroke-linejoin="round"/>
<path d="M487.351 359.016C487.14 350.101 485.816 350.275 484.755 339.859" stroke="#215E48" stroke-width="3.68004" stroke-miterlimit="1.5" stroke-linecap="round" stroke-linejoin="round"/>
<path d="M456.665 359.26C456.672 348.154 454.965 348.318 454.414 338.914" stroke="#215E48" stroke-width="3.68004" stroke-miterlimit="1.5" stroke-linecap="round" stroke-linejoin="round"/>
<path d="M422.454 359.675C422.066 352.489 421.768 352.54 419.854 339.49" stroke="#215E48" stroke-width="3.68004" stroke-miterlimit="1.5" stroke-linecap="round" stroke-linejoin="round"/>
<path d="M395.223 359.445C394.72 348.728 394.136 350.451 393.16 339.749" stroke="#215E48" stroke-width="3.68004" stroke-miterlimit="1.5" stroke-linecap="round" stroke-linejoin="round"/>
<path d="M369.73 359.79C368.244 342.907 368.318 344.927 367.924 339.468" stroke="#215E48" stroke-width="3.68004" stroke-miterlimit="1.5" stroke-linecap="round" stroke-linejoin="round"/>
<path d="M342.287 359.625C342.399 357.924 342.829 351.441 342.319 338.31" stroke="#215E48" stroke-width="3.68004" stroke-miterlimit="1.5" stroke-linecap="round" stroke-linejoin="round"/>
<path d="M312.502 360.175C312.665 358.553 313.139 353.825 313.437 339.814" stroke="#215E48" stroke-width="3.68004" stroke-miterlimit="1.5" stroke-linecap="round" stroke-linejoin="round"/>
<path d="M273.854 359.136C275.847 348.522 273.947 350.151 276.156 339.569" stroke="#215E48" stroke-width="3.68004" stroke-miterlimit="1.5" stroke-linecap="round" stroke-linejoin="round"/>
<path d="M244.122 359.538C244.879 353.565 244.766 354.96 245.051 349.289C245.273 344.896 245.622 343.485 246.056 339.552" stroke="#215E48" stroke-width="3.68004" stroke-miterlimit="1.5" stroke-linecap="round" stroke-linejoin="round"/>
<path d="M209.98 359.854C211.63 350.47 211.12 350.419 212.388 340.993" stroke="#215E48" stroke-width="3.68004" stroke-miterlimit="1.5" stroke-linecap="round" stroke-linejoin="round"/>
<path d="M178.568 360.524C179.733 353.521 179.737 350.842 180.616 340.226" stroke="#215E48" stroke-width="3.68004" stroke-miterlimit="1.5" stroke-linecap="round" stroke-linejoin="round"/>
<path d="M110.777 398.105C111.947 391.427 111.953 388.873 112.838 378.75" stroke="#215E48" stroke-width="3.67776" stroke-miterlimit="1.5" stroke-linecap="round" stroke-linejoin="round"/>
<path d="M146.747 359.012C147.877 351.071 147.11 352.817 148.352 339.97" stroke="#215E48" stroke-width="3.68004" stroke-miterlimit="1.5" stroke-linecap="round" stroke-linejoin="round"/>
<path d="M78.7209 377.98C159.133 379.816 177.685 377.897 273.307 378.803C455.953 380.534 455.145 378.398 471.025 378.584C554.339 379.56 554.001 377.954 638.129 378.226" stroke="#215E48" stroke-width="3.68004" stroke-miterlimit="1.5" stroke-linecap="round" stroke-linejoin="round"/>
<path d="M588.392 395.232C588.257 395.06 588.298 395.037 585.622 378.656" stroke="#215E48" stroke-width="3.68004" stroke-miterlimit="1.5" stroke-linecap="round" stroke-linejoin="round"/>
<path d="M51.2581 451.218C183.3 459.807 252.373 449.953 383.418 449.927C507.624 449.903 601.347 456.042 674.44 452.86" stroke="#215E48" stroke-width="3.68187" stroke-miterlimit="1.5" stroke-linecap="round" stroke-linejoin="round"/>
<path fill-rule="evenodd" clip-rule="evenodd" d="M229.473 442.913C229.473 442.913 226.258 442.451 227.874 434.344C229.49 426.237 230.15 415.062 232.833 412.455C235.517 409.849 247.247 410.718 260.047 410.735C272.848 410.752 351.49 408.936 363.871 409.28C376.252 409.624 444.344 410.323 444.344 410.323C444.344 410.323 445.416 410.267 446.553 410.35C447.69 410.432 465.916 409.886 466.958 411.38C468 412.873 478.57 438.24 475.329 440.392C472.088 442.544 369.825 441.012 358.312 440.714C346.799 440.417 249.235 443.933 229.473 442.913Z" stroke="#215E48" stroke-width="3.68187" stroke-miterlimit="1.5" stroke-linecap="round" stroke-linejoin="round"/>
<path fill-rule="evenodd" clip-rule="evenodd" d="M104.923 280.439C104.923 280.439 97.7137 252.368 83.6015 255.79C69.4889 259.212 72.5341 266.27 56.824 269.241C41.1135 272.213 37.91 264.04 37.8236 260.28C37.7372 256.52 37.6892 246.086 51.9533 243.635C66.217 241.183 80.9012 240.026 79.4841 232.112C78.067 224.198 58.7832 232.297 49.7797 238.77C40.7766 245.242 26.574 244.694 23.1029 236.532C19.6314 228.371 27.4244 221.821 45.4771 219.695C63.5301 217.569 63.8434 211.607 62.2511 206.853C60.6588 202.099 50.2194 202.773 41.3899 208.006C32.5601 213.239 11.2603 225.793 3.34584 209.392C-4.56862 192.992 20.978 191.273 26.5921 190.993C32.2062 190.714 49.847 189.237 48.3184 178.078C46.7899 166.919 15.3309 159.712 25.7275 134.642C36.1241 109.572 60.4477 150.295 62.8948 158.987C65.3419 167.68 72.4067 173.741 85.061 165.046C97.7156 156.351 110.576 149.949 117.692 155.173C124.808 160.397 131.842 170.89 114.313 179.289C96.7842 187.688 88.5415 186.494 84.8329 189.877C81.8066 192.638 81.9037 199.324 92.0624 199.587C102.221 199.85 109.246 187.223 120.983 186.51C132.719 185.798 134.949 194.443 135.016 197.801C135.115 202.75 127.99 213.128 114.718 215.19C101.446 217.253 96.1818 220.885 97.0358 223.964C97.8895 227.045 100.141 230.752 106.557 228.277C112.974 225.803 117.375 223.284 123.959 221.515C130.543 219.745 140.045 216.928 143.845 219.327C147.645 221.726 159.331 237.628 136.457 242.484C113.584 247.341 115.134 251 115.613 253.329C116.091 255.658 125.499 268.799 126.898 280.088" fill="#D3E2B6"/>
<path d="M104.923 280.439C104.923 280.439 97.7137 252.368 83.6015 255.79C69.4889 259.212 72.5341 266.27 56.824 269.241C41.1135 272.213 37.91 264.04 37.8236 260.28C37.7372 256.52 37.6892 246.086 51.9533 243.635C66.217 241.183 80.9012 240.026 79.4841 232.112C78.067 224.198 58.7832 232.297 49.7797 238.77C40.7766 245.242 26.574 244.694 23.1029 236.532C19.6314 228.371 27.4244 221.821 45.4771 219.695C63.5301 217.569 63.8434 211.607 62.2511 206.853C60.6588 202.099 50.2194 202.773 41.3899 208.006C32.5601 213.239 11.2603 225.793 3.34584 209.392C-4.56862 192.992 20.978 191.273 26.5921 190.993C32.2062 190.714 49.847 189.237 48.3184 178.078C46.7899 166.919 15.3309 159.712 25.7275 134.642C36.1241 109.572 60.4477 150.295 62.8948 158.987C65.3419 167.68 72.4067 173.741 85.061 165.046C97.7156 156.351 110.576 149.949 117.692 155.173C124.808 160.397 131.842 170.89 114.313 179.289C96.7842 187.688 88.5415 186.494 84.8328 189.877C81.8066 192.638 81.9037 199.324 92.0624 199.587C102.221 199.85 109.246 187.223 120.983 186.51C132.719 185.798 134.949 194.443 135.016 197.801C135.115 202.75 127.99 213.128 114.718 215.19C101.446 217.253 96.1818 220.885 97.0358 223.964C97.8895 227.045 100.141 230.752 106.557 228.277C112.974 225.803 117.375 223.284 123.959 221.515C130.543 219.745 140.045 216.928 143.845 219.327C147.645 221.726 159.331 237.628 136.457 242.484C113.584 247.341 115.134 251 115.613 253.329C116.091 255.658 125.499 268.799 126.898 280.088" stroke="#215E48" stroke-width="3.67569" stroke-miterlimit="1.5" stroke-linecap="round" stroke-linejoin="round"/>
<path fill-rule="evenodd" clip-rule="evenodd" d="M108.03 238.029C108.03 238.029 133.561 232.446 134.73 229.763L108.03 238.029Z" fill="#F9FBF5"/>
<path d="M108.03 238.029C108.03 238.029 133.561 232.446 134.73 229.763" stroke="#215E48" stroke-width="3.67569" stroke-miterlimit="1.5" stroke-linecap="round" stroke-linejoin="round"/>
<path fill-rule="evenodd" clip-rule="evenodd" d="M81.1697 247.277C81.1697 247.277 76.3245 249.384 66.3654 249.924C60.0601 250.266 57.3288 251.289 55.0052 253.724C53.891 254.891 52.87 256.383 51.5935 258.281" fill="#F9FBF5"/>
<path d="M81.1697 247.277C81.1697 247.277 76.3245 249.384 66.3654 249.924C60.0601 250.266 57.3288 251.289 55.0052 253.724C53.891 254.891 52.87 256.383 51.5935 258.281" stroke="#215E48" stroke-width="3.67569" stroke-miterlimit="1.5" stroke-linecap="round" stroke-linejoin="round"/>
<path fill-rule="evenodd" clip-rule="evenodd" d="M95.3376 207.737C95.3376 207.737 117.232 200.161 120.895 198.006L95.3376 207.737Z" fill="#F9FBF5"/>
<path d="M95.3376 207.737C95.3376 207.737 117.232 200.161 120.895 198.006" stroke="#215E48" stroke-width="3.67569" stroke-miterlimit="1.5" stroke-linecap="round" stroke-linejoin="round"/>
<path fill-rule="evenodd" clip-rule="evenodd" d="M83.8128 178.026C83.8128 178.026 100.534 168.196 111.621 165.469L83.8128 178.026Z" fill="#F9FBF5"/>
<path d="M83.8128 178.026C83.8128 178.026 100.534 168.196 111.621 165.469" stroke="#215E48" stroke-width="3.67569" stroke-miterlimit="1.5" stroke-linecap="round" stroke-linejoin="round"/>
<path fill-rule="evenodd" clip-rule="evenodd" d="M55.3392 168.828C55.3392 168.828 37.3984 138.062 33.4133 137.871L55.3392 168.828Z" fill="#F9FBF5"/>
<path d="M55.3392 168.828C55.3392 168.828 37.3984 138.062 33.4133 137.871" stroke="#215E48" stroke-width="3.67569" stroke-miterlimit="1.5" stroke-linecap="round" stroke-linejoin="round"/>
<path fill-rule="evenodd" clip-rule="evenodd" d="M50.7114 193.002C50.7114 193.002 23.2371 199.778 14.3295 208.835L50.7114 193.002Z" fill="#F9FBF5"/>
<path d="M50.7114 193.002C50.7114 193.002 23.2371 199.778 14.3295 208.835" stroke="#215E48" stroke-width="3.67569" stroke-miterlimit="1.5" stroke-linecap="round" stroke-linejoin="round"/>
<path fill-rule="evenodd" clip-rule="evenodd" d="M32.9579 233.27C32.9579 233.27 41.0049 227.307 47.8283 226.949C54.6517 226.591 65.9662 222.029 65.9662 222.029" fill="#F9FBF5"/>
<path d="M32.9579 233.27C32.9579 233.27 41.0049 227.307 47.8283 226.949C54.6517 226.591 65.9662 222.029 65.9662 222.029" stroke="#215E48" stroke-width="3.67569" stroke-miterlimit="1.5" stroke-linecap="round" stroke-linejoin="round"/>
<path d="M200.918 282.442C200.918 282.442 193.024 253.594 189.067 225.746" stroke="#215E48" stroke-width="3.67638" stroke-miterlimit="1.5" stroke-linecap="round" stroke-linejoin="round"/>
<path d="M242.449 281.88C242.449 281.88 222.614 230.507 232.572 196.548" stroke="#215E48" stroke-width="3.68187" stroke-miterlimit="1.5" stroke-linecap="round" stroke-linejoin="round"/>
<path fill-rule="evenodd" clip-rule="evenodd" d="M232.881 196.049C232.881 196.049 218.715 198.26 215.922 193.896C211.256 186.608 216.673 180.565 216.673 180.565C216.673 180.565 201.622 175.941 210.238 159.7C210.238 159.7 203.811 158.406 205.416 147.185C207.022 135.964 215.858 137.609 215.858 137.609C215.858 137.609 213.745 124.555 226.056 123.889C238.365 123.222 243.63 135.945 243.63 135.945C243.63 135.945 256.251 132.089 258.269 142.708C260.287 153.326 258.002 154.681 258.002 154.681C258.002 154.681 271.73 160.759 270.233 175.829C268.735 190.9 263.281 187.021 263.281 187.021C263.281 187.021 260.788 200.948 247.931 199.89C235.075 198.832 232.881 196.049 232.881 196.049Z" fill="#C9DAA5" stroke="#215E48" stroke-width="3.68187" stroke-miterlimit="1.5" stroke-linecap="round" stroke-linejoin="round"/>
<path fill-rule="evenodd" clip-rule="evenodd" d="M156.962 183.154C156.962 183.154 151.054 177.492 154.451 170.802C154.451 170.802 145.889 169.217 148.025 162.062C150.161 154.907 155.038 152.541 155.038 152.541C155.038 152.541 151.383 146.089 158.721 141.15C166.059 136.212 166.998 139.875 166.998 139.875C166.998 139.875 166.079 127.725 177.005 128.032C187.931 128.338 190.049 139.941 190.049 139.941C190.049 139.941 198.243 140.443 200.241 146.479C202.239 152.515 199.238 158.383 199.238 158.383C199.238 158.383 207.295 161.891 206.788 169.052C206.28 176.212 199.518 179.127 199.518 179.127C199.518 179.127 194.926 180.263 193.027 179.183C193.027 179.183 190.537 185.17 182.666 185.769C174.795 186.368 171.91 182.592 171.91 182.592C171.91 182.592 165.912 188.542 156.962 183.154Z" fill="#D4E1B7" stroke="#215E48" stroke-width="3.67844" stroke-miterlimit="1.5" stroke-linecap="round" stroke-linejoin="round"/>
<path fill-rule="evenodd" clip-rule="evenodd" d="M158.12 186.15C158.12 186.15 158.766 164.368 180.455 172.932C180.455 172.932 188.445 168.995 193.664 171.631C198.882 174.268 200.713 181.306 200.713 181.306C200.713 181.306 208.138 181.847 209.055 188.612C209.971 195.376 207.23 199.27 207.23 199.27C207.23 199.27 213.445 208.917 207.413 212.865C201.382 216.813 197.82 215.874 197.82 215.874C197.82 215.874 195.75 226.237 184.835 225.538C173.919 224.838 172.482 224.369 172.482 224.369C172.482 224.369 161.526 229.991 156.491 220.762C151.456 211.532 157.46 206.186 157.46 206.186C157.46 206.186 150.953 204.311 151.978 193.714C153.003 183.118 158.12 186.15 158.12 186.15Z" fill="#D3E2B6" stroke="#215E48" stroke-width="3.68187" stroke-miterlimit="1.5" stroke-linecap="round" stroke-linejoin="round"/>
<path fill-rule="evenodd" clip-rule="evenodd" d="M266.058 232.5C266.058 232.5 246.072 234.898 248.9 213.825C248.9 213.825 241.732 207.112 247.065 197.437C252.398 187.761 258.492 190.433 258.492 190.433C258.492 190.433 259.196 178.436 265.842 175.895C272.487 173.355 282.825 178.447 282.825 178.447C282.825 178.447 293.74 172.564 302.326 175.399C310.911 178.233 309.44 184.098 309.44 184.098C309.44 184.098 320.807 185.501 321.04 191.069C321.274 196.638 317.28 202.008 317.28 202.008C317.28 202.008 325.721 211.723 318.096 217.651C310.471 223.578 303.338 224.195 303.338 224.195C303.338 224.195 301.172 235.681 288.454 232.285C288.454 232.285 280.153 243.461 266.058 232.5Z" fill="#DDE7C5" stroke="#215E48" stroke-width="3.68187" stroke-miterlimit="1.5" stroke-linecap="round" stroke-linejoin="round"/>
<path d="M262.293 232.496C262.293 232.496 252.367 265.339 250.138 281.777" stroke="#215E48" stroke-width="3.68187" stroke-miterlimit="1.5" stroke-linecap="round" stroke-linejoin="round"/>
<path fill-rule="evenodd" clip-rule="evenodd" d="M571.301 282.26L573.684 239.894C573.684 239.894 577.502 216.347 569.364 208.842C561.227 201.338 559.449 199.937 559.449 199.937C559.787 200.01 561.21 199.214 562.415 197.994C563.378 197.018 563.234 194.654 563.25 193.364C563.263 192.247 576.611 206.444 576.611 206.444C576.611 206.444 577.459 193.267 579.915 157.51C582.372 121.753 568.313 115.246 568.313 115.246C570.237 113.722 572.341 111.992 573.427 109.811C594.608 121.714 582.867 197.715 582.867 197.715C584.346 193.182 604.129 174.356 604.129 174.356L605.672 180.079C605.672 180.079 593.827 188.82 587.794 206.291C581.762 223.762 575.536 282.202 575.536 282.202" fill="#D3E2B6"/>
<path d="M571.301 282.26L573.684 239.894C573.684 239.894 577.502 216.347 569.364 208.842C561.227 201.338 559.449 199.937 559.449 199.937C559.787 200.01 561.21 199.214 562.415 197.994C563.378 197.018 563.234 194.654 563.25 193.364C563.263 192.247 576.611 206.444 576.611 206.444C576.611 206.444 577.459 193.267 579.915 157.51C582.372 121.753 568.313 115.246 568.313 115.246C570.237 113.722 572.341 111.992 573.427 109.811C594.608 121.714 582.867 197.715 582.867 197.715C584.346 193.182 604.129 174.356 604.129 174.356L605.672 180.079C605.672 180.079 593.827 188.82 587.794 206.291C581.762 223.762 575.536 282.202 575.536 282.202" stroke="#215E48" stroke-width="3.68187" stroke-miterlimit="1.5" stroke-linecap="round" stroke-linejoin="round"/>
<path fill-rule="evenodd" clip-rule="evenodd" d="M561.47 197.944C564.071 195.568 563.48 182.946 559.965 176.36C554.58 166.274 551.607 168.545 550.114 160.874C548.621 153.202 544.342 131.379 527.723 136.648C511.103 141.917 516.9 157.645 525.019 168.092C533.138 178.538 531.818 183.631 533.547 189.588C536.332 199.186 546.838 211.312 561.47 197.944Z" fill="#F4E2D7" stroke="#A7592C" stroke-width="3.68187" stroke-miterlimit="1.5" stroke-linecap="round" stroke-linejoin="round"/>
<path fill-rule="evenodd" clip-rule="evenodd" d="M537.78 105.575C540.11 111.433 558.624 125.084 570.799 113.163C582.974 101.242 559.674 77.5424 558.661 71.5674C557.107 62.4043 558.316 56.9641 556.613 48.5115C554.139 36.2393 536.804 30.1338 529.171 37.0835C521.538 44.0331 516.922 52.7714 525.61 67.9453C534.297 83.1191 530.741 87.8772 537.78 105.575Z" fill="#E9C5AF" stroke="#A7592C" stroke-width="3.68187" stroke-miterlimit="1.5" stroke-linecap="round" stroke-linejoin="round"/>
<path fill-rule="evenodd" clip-rule="evenodd" d="M640.524 98.8363C640.524 98.8363 625.109 115.981 611.738 111.62C598.366 107.259 600.316 99.0258 602.216 93.04C604.116 87.0546 613.438 86.3196 628.396 74.9484C643.355 63.5775 648.899 55.6634 658.227 58.2571C667.556 60.8509 671.387 69.2194 668.143 80.289C664.9 91.3587 649.485 92.5187 640.524 98.8363Z" fill="#EAC4AE" stroke="#A7592C" stroke-width="3.68187" stroke-miterlimit="1.5" stroke-linecap="round" stroke-linejoin="round"/>
<path d="M587.818 117.515C587.818 117.515 588.356 87.3648 583.297 79.9502" stroke="#215E48" stroke-width="3.68187" stroke-miterlimit="1.5" stroke-linecap="round" stroke-linejoin="round"/>
<path d="M592.977 110.484C592.977 110.484 594.177 86.3002 588.903 79.8741" stroke="#215E48" stroke-width="3.68187" stroke-miterlimit="1.5" stroke-linecap="round" stroke-linejoin="round"/>
<path fill-rule="evenodd" clip-rule="evenodd" d="M582.842 46.4243C582.842 46.4243 569.439 62.3282 575.015 72.0796C580.592 81.8307 589.787 80.6556 594.598 77.9378C599.409 75.22 596.108 58.8248 600.226 52.9047C604.343 46.9849 620.929 42.0414 619.891 25.7411C618.853 9.44091 600.212 8.33072 591.467 19.1015C582.723 29.8723 587.517 40.9669 582.842 46.4243Z" fill="#F4E2D7" stroke="#A7592C" stroke-width="3.68187" stroke-miterlimit="1.5" stroke-linecap="round" stroke-linejoin="round"/>
<path fill-rule="evenodd" clip-rule="evenodd" d="M615.033 158.652C610.94 160.35 594.612 176.325 610.451 182.348C626.29 188.371 630.972 176.713 640.549 174.849C650.126 172.986 666.296 171.85 673.182 162.897C680.068 153.943 672.174 140.734 652.898 144.695C646.736 145.96 643.645 151.872 635.99 154.235C622.131 158.512 622.787 155.434 615.033 158.652Z" fill="#F4E2D7" stroke="#A7592C" stroke-width="3.68187" stroke-miterlimit="1.5" stroke-linecap="round" stroke-linejoin="round"/>
<path fill-rule="evenodd" clip-rule="evenodd" d="M523.924 216.585C523.924 216.585 525.776 210.886 533.107 209.095C540.437 207.304 546.984 214.775 546.984 214.775C546.984 214.775 557.197 211.928 560.158 214.367C563.119 216.806 566.853 225.375 557.254 233.014C547.655 240.653 535.418 246.97 525.539 243.825C515.66 240.68 505.612 232.333 509.576 223.014C513.539 213.695 523.924 216.585 523.924 216.585Z" fill="#ACDFEC" stroke="#1C697D" stroke-width="3.68187" stroke-miterlimit="1.5" stroke-linecap="round" stroke-linejoin="round"/>
<path d="M531.368 244.65C531.368 244.65 522.376 224.052 520.881 216.171" stroke="#1C697D" stroke-width="3.68187" stroke-miterlimit="1.5" stroke-linecap="round" stroke-linejoin="round"/>
<path d="M531.365 244.65C531.365 244.65 547.054 226.109 547.576 215.809" stroke="#1C697D" stroke-width="3.68187" stroke-miterlimit="1.5" stroke-linecap="round" stroke-linejoin="round"/>
<path fill-rule="evenodd" clip-rule="evenodd" d="M583.59 282.372C583.59 282.372 590.708 231.406 625.39 205.783C660.072 180.16 613.569 216.671 609.415 240.427C605.262 264.183 602.639 282.488 602.639 282.488" fill="#D4E1B7"/>
<path d="M583.59 282.372C583.59 282.372 590.708 231.406 625.39 205.783C660.072 180.16 613.569 216.671 609.415 240.427C605.262 264.183 602.639 282.488 602.639 282.488" stroke="#215E48" stroke-width="3.68187" stroke-miterlimit="1.5" stroke-linecap="round" stroke-linejoin="round"/>
<path fill-rule="evenodd" clip-rule="evenodd" d="M589.963 282.661C589.963 282.661 609.173 244.058 620.386 235.81C631.598 227.563 643.575 217.26 662.484 214.252C662.484 214.252 612.998 249.91 603.617 282.475" fill="#D4E1B7"/>
<path d="M589.963 282.661C589.963 282.661 609.173 244.058 620.386 235.81C631.598 227.563 643.575 217.26 662.484 214.252C662.484 214.252 612.998 249.91 603.617 282.475" stroke="#215E48" stroke-width="3.68187" stroke-miterlimit="1.5" stroke-linecap="round" stroke-linejoin="round"/>
<path fill-rule="evenodd" clip-rule="evenodd" d="M604.88 281.566C604.88 281.566 618.051 256.199 634.718 246.491C651.385 236.783 666.724 236.376 666.724 236.376C666.724 236.376 621.23 261.451 614.884 281.669" fill="#D4E1B7"/>
<path d="M604.88 281.566C604.88 281.566 618.051 256.199 634.718 246.491C651.385 236.783 666.724 236.376 666.724 236.376C666.724 236.376 621.23 261.451 614.884 281.669" stroke="#215E48" stroke-width="3.68187" stroke-miterlimit="1.5" stroke-linecap="round" stroke-linejoin="round"/>
<path fill-rule="evenodd" clip-rule="evenodd" d="M460.178 266.274C460.178 266.274 454.503 271.859 446.531 265.252C438.558 258.645 438.384 258.448 438.384 258.448C438.384 258.448 447.897 262.056 457.211 260.21C466.524 258.365 460.103 260.7 460.103 260.7" fill="#A6BCA4"/>
<path d="M460.178 266.274C460.178 266.274 454.503 271.859 446.531 265.252C438.558 258.645 438.384 258.448 438.384 258.448C438.384 258.448 447.897 262.056 457.211 260.21C466.524 258.365 460.103 260.7 460.103 260.7" stroke="#215E48" stroke-width="3.68187" stroke-miterlimit="1.5" stroke-linecap="round" stroke-linejoin="round"/>
<path fill-rule="evenodd" clip-rule="evenodd" d="M527.466 265.834C527.466 265.834 519.21 265.32 515.819 262.523C512.429 259.726 510.025 268.273 527.055 272.104" fill="#A6BCA4"/>
<path d="M527.466 265.834C527.466 265.834 519.21 265.32 515.819 262.523C512.429 259.726 510.025 268.273 527.055 272.104" stroke="#215E48" stroke-width="3.68187" stroke-miterlimit="1.5" stroke-linecap="round" stroke-linejoin="round"/>
<path fill-rule="evenodd" clip-rule="evenodd" d="M527.349 257.242C527.349 257.242 531.272 254.828 537.253 253.419C543.234 252.011 548.568 253.361 551.337 251.212C551.337 251.212 543.392 260.447 535.084 261.013C526.776 261.579 527.48 266.947 527.48 266.947" fill="#A6BCA4"/>
<path d="M527.349 257.242C527.349 257.242 531.272 254.828 537.253 253.419C543.234 252.011 548.568 253.361 551.337 251.212C551.337 251.212 543.392 260.447 535.084 261.013C526.776 261.579 527.48 266.947 527.48 266.947" stroke="#215E48" stroke-width="3.68187" stroke-miterlimit="1.5" stroke-linecap="round" stroke-linejoin="round"/>
<path fill-rule="evenodd" clip-rule="evenodd" d="M498.986 252.987C498.986 252.987 506.74 255.063 510.721 249.469C514.703 243.875 517.04 247.05 517.04 247.05C517.04 247.05 514.542 261.055 503.655 261.438" fill="#A6BCA4"/>
<path d="M498.986 252.987C498.986 252.987 506.74 255.063 510.721 249.469C514.703 243.875 517.04 247.05 517.04 247.05C517.04 247.05 514.542 261.055 503.655 261.438" stroke="#215E48" stroke-width="3.68187" stroke-miterlimit="1.5" stroke-linecap="round" stroke-linejoin="round"/>
<path fill-rule="evenodd" clip-rule="evenodd" d="M501.239 257.595C501.239 257.595 496.69 260.604 489.1 258.964C481.51 257.324 480.697 261.751 480.697 261.751C480.697 261.751 487.317 267.785 504.033 265.849" fill="#A6BCA4"/>
<path d="M501.239 257.595C501.239 257.595 496.69 260.604 489.1 258.964C481.51 257.324 480.697 261.751 480.697 261.751C480.697 261.751 487.317 267.785 504.033 265.849" stroke="#215E48" stroke-width="3.68187" stroke-miterlimit="1.5" stroke-linecap="round" stroke-linejoin="round"/>
<path fill-rule="evenodd" clip-rule="evenodd" d="M478.969 234.031C478.969 234.031 493.172 240.475 503.621 234.512C514.07 228.549 517.18 211.391 510.436 205.934C503.692 200.477 496.624 206.886 496.624 206.886C496.624 206.886 490.425 201.602 483.569 203.424C476.714 205.247 474.224 210.336 474.224 210.336C474.224 210.336 466.757 210.147 464.871 214.057C462.984 217.967 459.333 228.826 478.969 234.031Z" fill="#ACDFEC" stroke="#1C697D" stroke-width="3.68187" stroke-miterlimit="1.5" stroke-linecap="round" stroke-linejoin="round"/>
<path d="M498.128 209.566L493.648 240.275L474.871 213.562" stroke="#1C697D" stroke-width="3.68187" stroke-miterlimit="1.5" stroke-linecap="round" stroke-linejoin="round"/>
<path d="M527.269 283.135C527.269 283.135 526.64 249.704 529.029 243.778" stroke="#215E48" stroke-width="3.68187" stroke-miterlimit="1.5" stroke-linecap="round" stroke-linejoin="round"/>
<path fill-rule="evenodd" clip-rule="evenodd" d="M463.985 282.394C463.985 282.394 460.63 249.453 455.291 245.56C455.291 245.56 426.315 242.16 431.817 220.588C437.319 199.016 447.075 215.706 447.075 215.706C447.075 215.706 451.352 203.536 463.767 207.974C476.182 212.412 472.903 216.225 472.903 216.225C472.903 216.225 484.524 210.801 486.576 222.958C488.629 235.114 455.291 245.56 455.291 245.56C455.291 245.56 460.029 247.504 463.985 282.394Z" fill="#D5EFF6"/>
<path d="M455.809 246.034C460.846 251.576 463.985 282.394 463.985 282.394C460.815 254.439 457.143 247.634 455.809 246.034C455.638 245.846 455.465 245.687 455.291 245.56C455.291 245.56 455.478 245.637 455.809 246.034Z" fill="#D5EFF6"/>
<path d="M463.985 282.394C463.985 282.394 460.63 249.453 455.291 245.56M463.985 282.394C460.029 247.504 455.291 245.56 455.291 245.56M463.985 282.394C463.985 282.394 460.846 251.576 455.809 246.034M463.985 282.394C460.815 254.439 457.143 247.634 455.809 246.034M455.291 245.56C455.291 245.56 426.315 242.16 431.817 220.588C437.319 199.016 447.075 215.706 447.075 215.706C447.075 215.706 451.352 203.536 463.767 207.974C476.182 212.412 472.903 216.225 472.903 216.225C472.903 216.225 484.524 210.801 486.576 222.958C488.629 235.114 455.291 245.56 455.291 245.56ZM455.291 245.56C455.465 245.687 455.638 245.846 455.809 246.034M455.291 245.56C455.291 245.56 455.478 245.637 455.809 246.034" stroke="#1C697D" stroke-width="3.68187" stroke-miterlimit="1.5" stroke-linecap="round" stroke-linejoin="round"/>
<path d="M493.835 240.275C493.835 240.275 508.445 270.477 507.618 283.4" stroke="#215E48" stroke-width="3.68187" stroke-miterlimit="1.5" stroke-linecap="round" stroke-linejoin="round"/>
<path d="M443.882 213.983C443.882 213.983 455.694 240.91 456.81 244.756C456.81 244.756 470.491 217.428 472.301 215.909" stroke="#1C697D" stroke-width="3.68187" stroke-miterlimit="1.5" stroke-linecap="round" stroke-linejoin="round"/>
<path fill-rule="evenodd" clip-rule="evenodd" d="M270.872 84.1251C270.872 84.1251 275.248 88.6843 278.975 85.6602C282.701 82.6357 281.394 79.1026 281.394 79.1026C281.394 79.1026 287.763 78.169 285.419 69.2301C285.419 69.2301 290.342 56.9451 277.495 57.3493C277.495 57.3493 269.948 50.284 263.273 59.7847C263.273 59.7847 248.9 68.2973 261.195 75.4944C261.195 75.4944 258.104 88.2278 270.872 84.1251Z" fill="#EAAEAE" stroke="#C13333" stroke-width="3.6824" stroke-miterlimit="1.5" stroke-linecap="round" stroke-linejoin="round"/>
<path fill-rule="evenodd" clip-rule="evenodd" d="M309.069 65.2903C309.069 65.2903 308.498 71.2419 319.602 70.1368C319.602 70.1368 327.868 78.1735 331.918 65.6131C331.918 65.6131 341.086 54.3514 331.822 51.355C331.822 51.355 329.334 40.2222 319.525 44.7686C319.525 44.7686 306.949 41.1172 306.321 54.347C306.321 54.347 299.561 63.3672 309.069 65.2903Z" fill="#E9AFAF" stroke="#C13333" stroke-width="3.6824" stroke-miterlimit="1.5" stroke-linecap="round" stroke-linejoin="round"/>
<path fill-rule="evenodd" clip-rule="evenodd" d="M325.819 102.337C325.819 102.337 316.95 100.295 322.095 91.0418C322.095 91.0418 317.934 82.7747 323.809 80.088C329.685 77.4012 331.544 79.0426 331.544 79.0426C331.544 79.0426 337.896 73.9699 342.748 78.7062C347.599 83.4429 345.679 81.7765 345.679 81.7765C345.679 81.7765 358.083 86.2948 348.063 95.0758C348.063 95.0758 351.308 104.102 340.078 104.065C340.078 104.065 333.309 113.58 325.819 102.337Z" fill="#F4D7D7" stroke="#C13333" stroke-width="3.6824" stroke-miterlimit="1.5" stroke-linecap="round" stroke-linejoin="round"/>
<path fill-rule="evenodd" clip-rule="evenodd" d="M285.225 128.783C285.225 128.783 293.907 137.254 300.076 126.099C300.076 126.099 310.541 119.913 303.041 112.244C303.041 112.244 307.158 101.617 294.645 102.751C294.645 102.751 286.335 95.7732 281.934 103.145C281.934 103.145 267.97 104.787 274.491 113.176C274.491 113.176 266.734 118.073 274.073 122.992C274.073 122.992 277.355 133.036 285.225 128.783Z" fill="#F4D7D7" stroke="#C13333" stroke-width="3.6824" stroke-miterlimit="1.5" stroke-linecap="round" stroke-linejoin="round"/>
<path d="M273.05 72.8824C274.641 72.8608 275.914 71.5554 275.892 69.9669C275.871 68.3784 274.564 67.1082 272.972 67.1298C271.381 67.1515 270.108 68.4568 270.13 70.0454C270.151 71.6339 271.459 72.9041 273.05 72.8824Z" stroke="#C13333" stroke-width="3.6824" stroke-miterlimit="1.5" stroke-linecap="round" stroke-linejoin="round"/>
<path d="M320.654 61.0246C322.147 61.0042 323.343 59.8732 323.325 58.4984C323.306 57.1236 322.08 56.0256 320.586 56.0459C319.093 56.0663 317.897 57.1973 317.915 58.5721C317.934 59.9469 319.16 61.0449 320.654 61.0246Z" stroke="#C13333" stroke-width="3.6824" stroke-miterlimit="1.5" stroke-linecap="round" stroke-linejoin="round"/>
<path d="M337.771 92.2295C339.404 92.2072 340.709 90.8824 340.688 89.2704C340.666 87.6584 339.325 86.3697 337.692 86.3919C336.06 86.4141 334.754 87.7389 334.776 89.3509C334.797 90.9629 336.138 92.2517 337.771 92.2295Z" stroke="#C13333" stroke-width="3.6824" stroke-miterlimit="1.5" stroke-linecap="round" stroke-linejoin="round"/>
<path d="M288.021 120.355C289.998 120.328 291.579 118.72 291.553 116.763C291.526 114.806 289.902 113.242 287.926 113.269C285.949 113.296 284.368 114.904 284.394 116.86C284.421 118.817 286.044 120.381 288.021 120.355Z" stroke="#C13333" stroke-width="3.6824" stroke-miterlimit="1.5" stroke-linecap="round" stroke-linejoin="round"/>
<path d="M455.809 246.033C460.846 251.576 463.987 282.396 463.987 282.396C460.815 254.439 457.143 247.634 455.809 246.033C455.638 245.846 455.465 245.687 455.291 245.559C455.291 245.559 455.478 245.636 455.809 246.033Z" fill="#F4E2D7"/>
<path d="M463.987 282.396C463.987 282.396 460.63 249.453 455.291 245.559C455.291 245.559 460.028 247.504 463.987 282.396Z" stroke="#215E48" stroke-width="3.68187" stroke-miterlimit="1.5" stroke-linecap="round" stroke-linejoin="round"/>
</svg>
