<svg width="131" height="134" viewBox="0 0 131 134" fill="none" xmlns="http://www.w3.org/2000/svg">
<g clip-path="url(#clip0_413_1155)">
<path fill-rule="evenodd" clip-rule="evenodd" d="M67.6732 0.00012207C80.025 0.00012207 77.9688 39.9288 77.664 40.7195C87.7389 14.5803 98.2032 5.20611 111.521 19.5186C120.255 28.9046 92.529 55.5758 91.7932 55.9035C116.117 45.0764 129.684 46.3992 129.684 66.64C129.684 79.914 92.529 77.7045 91.7932 77.3768C116.117 88.2039 124.839 99.4492 111.521 113.762C102.787 123.148 77.9688 93.3515 77.664 92.5609C87.7389 118.7 86.5081 133.28 67.6732 133.28C55.3217 133.28 57.3775 93.3515 57.6824 92.5609C47.6075 118.7 37.1432 128.074 23.8252 113.762C15.0914 104.376 42.8177 77.7045 43.5531 77.3768C19.2301 88.2039 5.6626 86.8811 5.6626 66.64C5.6626 53.3663 42.8177 55.5758 43.5531 55.9035C19.2301 45.0764 10.5069 33.8312 23.8252 19.5186C32.5591 10.1327 57.3775 39.9288 57.6824 40.7195C47.6075 14.5803 48.8383 0.00012207 67.6732 0.00012207Z" fill="#E8EFD8"/>
<path d="M1.58716 65.4245C1.58716 65.4245 43.5425 57.9384 47.7151 55.621" stroke="#215E48" stroke-width="3.17529" stroke-miterlimit="1.5" stroke-linecap="round" stroke-linejoin="round"/>
<path d="M20.8706 62.2584C20.8706 62.2584 17.5143 83.6431 30.59 87.9928" stroke="#215E48" stroke-width="3.17529" stroke-miterlimit="1.5" stroke-linecap="round" stroke-linejoin="round"/>
<path d="M13.8013 94.046C13.8013 94.046 36.7033 85.5333 43.4348 85.3615" stroke="#215E48" stroke-width="3.17529" stroke-miterlimit="1.5" stroke-linecap="round" stroke-linejoin="round"/>
<path d="M40.5002 85.7318C40.5002 85.7318 53.8343 101.305 64.8284 103.359C75.8228 105.414 71.1653 99.5745 71.1653 99.5745" stroke="#215E48" stroke-width="3.17529" stroke-miterlimit="1.5" stroke-linecap="round" stroke-linejoin="round"/>
<path d="M63.0408 91.205C63.0408 91.205 69.7512 100.678 76.6903 100.648C83.6293 100.619 82.9107 94.046 82.9107 94.046" stroke="#215E48" stroke-width="3.17529" stroke-miterlimit="1.5" stroke-linecap="round" stroke-linejoin="round"/>
<path d="M72.1448 85.3615C72.1448 85.3615 81.8806 97.7777 87.825 94.046C93.7693 90.3145 91.4854 87.9928 91.4854 87.9928" stroke="#215E48" stroke-width="3.17529" stroke-miterlimit="1.5" stroke-linecap="round" stroke-linejoin="round"/>
<path d="M82.0306 80.1323C82.0306 80.1323 91.5915 90.3282 96.9771 85.3614C102.363 80.3943 75.5371 58.8986 75.5371 58.8986" stroke="#215E48" stroke-width="3.17529" stroke-miterlimit="1.5" stroke-linecap="round" stroke-linejoin="round"/>
<path d="M110.069 5.36823C110.069 5.36823 101.15 22.0885 91.9167 25.9738C90.5866 26.5336 89.073 27.1632 87.4427 27.8503C77.7565 31.9316 63.9449 38.0329 59.9118 43.4729C55.1998 49.8287 47.0888 67.6417 50.4816 71.1897C53.8748 74.7374 64.5769 66.1169 66.988 55.4516" stroke="#215E48" stroke-width="3.17529" stroke-miterlimit="1.5" stroke-linecap="round" stroke-linejoin="round"/>
<path d="M128.815 22.9344C128.815 22.9344 96.6737 52.1834 94.3047 70.2326" stroke="#215E48" stroke-width="3.17529" stroke-miterlimit="1.5" stroke-linecap="round" stroke-linejoin="round"/>
<path d="M100.398 19.1977C100.398 19.1977 115.344 26.4543 114.301 38.684" stroke="#215E48" stroke-width="3.17529" stroke-miterlimit="1.5" stroke-linecap="round" stroke-linejoin="round"/>
</g>
<defs>
<clipPath id="clip0_413_1155">
<rect width="130.425" height="133.472" fill="white"/>
</clipPath>
</defs>
</svg>
