<svg width="64" height="34" viewBox="0 0 64 34" fill="none" xmlns="http://www.w3.org/2000/svg">
<path d="M19.5238 26V13.2081H22.4381L22.7218 14.936C23.1344 14.3171 23.676 13.827 24.3465 13.466C25.0343 13.0877 25.8252 12.8986 26.7192 12.8986C28.6965 12.8986 30.0977 13.6637 30.923 15.1939C31.3872 14.489 32.0062 13.9302 32.7799 13.5176C33.5708 13.1049 34.4305 12.8986 35.3589 12.8986C37.0267 12.8986 38.3076 13.3972 39.2017 14.3944C40.0957 15.3916 40.5428 16.8531 40.5428 18.7788V26H37.2416V19.0882C37.2416 17.9879 37.0267 17.1454 36.5969 16.5608C36.1842 15.9762 35.5395 15.6839 34.6626 15.6839C33.7685 15.6839 33.0464 16.0106 32.4962 16.664C31.9632 17.3173 31.6967 18.2286 31.6967 19.3977V26H28.3956V19.0882C28.3956 17.9879 28.1807 17.1454 27.7508 16.5608C27.321 15.9762 26.6591 15.6839 25.765 15.6839C24.8881 15.6839 24.1746 16.0106 23.6244 16.664C23.0914 17.3173 22.8249 18.2286 22.8249 19.3977V26H19.5238ZM49.9697 26.3095C49.0068 26.3095 48.1643 26.129 47.4422 25.7679C46.7201 25.4068 46.1355 24.8996 45.6885 24.2463L45.3274 26H42.3874V7.43108H45.6885V15.0392C46.1011 14.4718 46.6427 13.9732 47.3133 13.5434C48.001 13.1135 48.8865 12.8986 49.9697 12.8986C51.1732 12.8986 52.2478 13.1909 53.1934 13.7755C54.1391 14.36 54.887 15.1595 55.4372 16.1739C55.9874 17.1884 56.2625 18.3403 56.2625 19.6298C56.2625 20.9193 55.9874 22.0713 55.4372 23.0857C54.887 24.0829 54.1391 24.8738 53.1934 25.4584C52.2478 26.0258 51.1732 26.3095 49.9697 26.3095ZM49.2733 23.421C50.3221 23.421 51.1904 23.0685 51.8781 22.3636C52.5659 21.6587 52.9097 20.7474 52.9097 19.6298C52.9097 18.5123 52.5659 17.5924 51.8781 16.8703C51.1904 16.1482 50.3221 15.7871 49.2733 15.7871C48.2073 15.7871 47.3305 16.1482 46.6427 16.8703C45.9722 17.5752 45.6369 18.4865 45.6369 19.604C45.6369 20.7216 45.9722 21.6415 46.6427 22.3636C47.3305 23.0685 48.2073 23.421 49.2733 23.421ZM57.9219 26V7.43108H61.223V26H57.9219Z" fill="#215E48"/>
<path d="M9.3953 12.5651C12.3152 11.7827 14.5163 12.5376 15.9497 14.0748C17.2692 15.4898 17.7578 17.3725 17.8444 18.6503L17.8481 19.0229V26.1128H14.7131V23.3315C13.8423 23.9468 12.9168 24.5298 12.0194 25.0378C11.0422 25.591 10.0612 26.0767 9.17753 26.429C8.34582 26.7605 7.83936 27.047 6.63425 27.047C5.42913 27.047 3.83537 26.7028 2.49613 25.7756C1.08732 24.8003 2.24173e-05 23.1942 0 20.8999C0 18.7592 0.712694 16.9922 2.41899 15.5897C3.99658 14.2929 6.33667 13.3847 9.3953 12.5651ZM3.13496 20.8999C3.13496 21.6493 3.40531 22.5921 4.28057 23.1981C5.15584 23.804 6.82834 24.0565 8.04547 23.5908C9.26259 23.1252 12.5543 21.3925 13.6569 20.4037C14.7595 19.4149 14.6055 18.3711 14.6055 18.3711C14.5419 17.5539 14.3201 16.9239 13.6569 16.2128C13.0967 15.612 12.129 15.0782 10.2066 15.5933C7.21234 16.3956 5.31679 17.1045 4.40977 18.0115C3.32515 19.0961 3.13496 20.1505 3.13496 20.8999Z" fill="#215E48"/>
</svg>
