<svg width="254" height="352" viewBox="0 0 254 352" fill="none" xmlns="http://www.w3.org/2000/svg">
<path fill-rule="evenodd" clip-rule="evenodd" d="M93.4503 63.5563L222.849 116.242L168.925 257.395L34.5557 203.598L93.4503 63.5563Z" fill="#EFD3C2"/>
<path d="M92.7154 62.5738C159.709 87.2363 203.031 107.184 222.849 116.242" stroke="#A7592C" stroke-width="5.47382" stroke-miterlimit="1.5" stroke-linecap="round" stroke-linejoin="round"/>
<path d="M35.0093 202.498C135.999 251.819 142.376 245.015 168.732 259.365" stroke="#A7592C" stroke-width="5.47051" stroke-miterlimit="1.5" stroke-linecap="round" stroke-linejoin="round"/>
<path fill-rule="evenodd" clip-rule="evenodd" d="M141.175 14.9318C141.175 14.9318 195.434 33.5397 219.877 43.9881C227.054 47.0565 231.888 49.8176 233.144 51.1971C235.012 53.2481 237.657 54.4885 239.87 56.0637C242.615 58.0167 244.895 60.3101 246.189 63.4194C247.453 66.4547 247.886 70.3899 246.251 75.8917C242.342 89.052 227.551 117.463 223.53 125.895C219.589 134.154 174.324 252.37 170.273 265.042C166.146 277.955 156.729 304.001 151.548 314.938C148.145 322.118 143.648 329.505 138.276 334.072C133.844 337.838 128.811 339.829 123.312 339.256C119.912 338.902 114.985 337.261 109.374 334.776C97.6697 329.59 82.4839 320.751 72.7195 315.346C58.8781 307.684 35.1223 300.57 21.8011 292.474C15.2649 288.502 11.5433 283.983 9.58341 279.305C6.67731 272.367 7.64676 264.825 10.3204 257.286C13.9829 246.961 20.7485 230.45 27.5535 211.577C34.3416 192.75 74.9264 101.656 80.2576 84.4458C85.6977 66.8832 100.397 29.0968 106.212 19.299C108.762 15.0015 113.402 12.6624 118.925 11.9892C128.623 10.8076 141.14 14.9197 141.14 14.9197L141.175 14.9318ZM139.4 20.1082C139.4 20.1082 116.625 12.4728 110.917 22.0913C105.209 31.7103 90.8254 68.8236 85.4848 86.0649C80.1437 103.306 39.5017 194.572 32.7008 213.433C25.9002 232.295 19.1382 248.796 15.4775 259.116C11.8172 269.435 11.3744 279.734 24.6431 287.798C37.9112 295.861 61.583 302.927 75.3695 310.559C89.1566 318.191 113.865 332.769 123.879 333.814C133.894 334.857 141.492 323.381 146.603 312.594C151.713 301.808 160.99 276.113 165.061 263.377C169.131 250.64 214.631 131.84 218.59 123.539C222.55 115.239 237.157 87.2896 241.006 74.3332C244.855 61.3768 234.42 60.7265 229.098 54.8808C223.776 49.0352 139.4 20.1082 139.4 20.1082Z" fill="#A7592C"/>
<path d="M111.54 43.3382C111.54 43.3382 112.862 40.3637 114.352 40.7688C115.843 41.1735 111.908 48.8428 111.908 48.8428C111.908 48.8428 113.738 45.8284 117.783 47.1028C121.828 48.3773 114.992 49.614 123.069 51.8184C131.147 54.0234 126.628 48.3783 130.641 50.9019C134.654 53.4253 131.403 54.4297 135.81 56.1879C140.217 57.9464 133.634 60.7696 139.9 58.9834C143.913 57.8389 146.704 56.0621 148.139 59.1947C149.575 62.3274 147.323 61.613 148.593 63.0125" stroke="#A7592C" stroke-width="5.25319" stroke-miterlimit="1.5" stroke-linecap="round" stroke-linejoin="round"/>
<path d="M94.1883 115.221C94.1883 115.221 96.3591 134.906 125.716 132.501" stroke="#A7592C" stroke-width="5.47382" stroke-miterlimit="1.5" stroke-linecap="round" stroke-linejoin="round"/>
<path d="M155.743 143.526C155.743 143.526 161.838 160.788 187.068 157.183" stroke="#A7592C" stroke-width="5.47382" stroke-miterlimit="1.5" stroke-linecap="round" stroke-linejoin="round"/>
<path d="M86.7884 150.789C86.7884 150.789 103.161 204.695 166.444 187.993" stroke="#A7592C" stroke-width="5.47382" stroke-miterlimit="1.5" stroke-linecap="round" stroke-linejoin="round"/>
<path d="M71.1145 239.607C72.229 236.905 75.3704 235.598 78.0728 236.712C79.4701 237.289 80.5577 238.433 81.0634 239.858C81.1166 239.998 81.2256 240.11 81.3644 240.167C81.5032 240.224 81.6594 240.222 81.7961 240.16C83.1608 239.496 84.7465 239.448 86.1492 240.026C88.8472 241.139 90.1514 244.274 89.0388 246.972C89.0354 246.98 89.0325 246.987 89.0292 246.995C88.1832 249.047 86.2079 250.024 84.3102 250.814L77.4282 253.544C76.9267 253.794 76.3414 253.816 75.8236 253.602C75.3131 253.392 74.9165 252.973 74.734 252.453L71.77 245.642C70.9805 243.744 70.2649 241.667 71.1145 239.607Z" stroke="#A7592C" stroke-width="5.25153" stroke-linecap="round" stroke-linejoin="round"/>
<path d="M35.2651 230.807C35.2598 231.193 35.1393 231.569 34.9182 231.887L32.7489 234.44C32.712 234.494 32.6806 234.553 32.6559 234.613C32.4531 235.105 32.6913 235.675 33.1822 235.878C33.2601 235.91 33.3412 235.932 33.4246 235.943L36.8504 236.31C37.207 236.381 37.5364 236.55 37.8008 236.799C38.759 237.842 39.9342 238.662 41.2438 239.203C46.1578 241.229 51.8686 238.853 53.8952 233.939C55.9218 229.025 53.5459 223.314 48.6319 221.288C43.718 219.261 38.0071 221.637 35.9805 226.551C35.4249 227.898 35.1804 229.353 35.2651 230.807Z" stroke="#A7592C" stroke-width="5.25153" stroke-linecap="round" stroke-linejoin="round"/>
<path d="M112.088 270.362C112.086 270.559 112.205 270.739 112.388 270.815C112.578 270.893 112.8 270.842 112.936 270.687L125.777 256.069C125.815 256.028 125.844 255.98 125.865 255.929C125.966 255.685 125.849 255.402 125.604 255.302C125.553 255.281 125.499 255.268 125.443 255.266L106.023 254.069C105.816 254.056 105.624 254.177 105.545 254.368C105.47 254.551 105.514 254.762 105.655 254.899L111.584 260.677C111.962 261.046 112.174 261.554 112.17 262.082L112.088 270.362Z" stroke="#A7592C" stroke-width="5.25153" stroke-linecap="round" stroke-linejoin="round"/>
<path d="M153.142 267.707C154.125 268.113 154.6 269.255 154.195 270.238L148.653 283.674C148.451 284.164 147.879 284.402 147.388 284.2C147.232 284.136 147.096 284.031 146.993 283.898L143.904 279.923C143.483 279.381 142.806 279.102 142.126 279.19L137.133 279.832C136.966 279.853 136.795 279.831 136.64 279.767C136.149 279.565 135.911 278.993 136.113 278.502L141.654 265.066C142.06 264.083 143.202 263.608 144.185 264.013L153.142 267.707Z" stroke="#A7592C" stroke-width="5.25153" stroke-linecap="round" stroke-linejoin="round"/>
<path d="M24.5881 251.05C24.5881 251.05 29.6796 246.488 34.0934 251.647C38.5074 256.806 44.8572 260.624 48.249 262.255C51.6401 263.885 55.5419 261.449 61.2626 264.594C66.9831 267.74 69.1269 269.114 74.7637 271.334C80.4012 273.554 81.1146 272.761 88.1116 274.767C95.1087 276.772 102.735 282.442 105.96 284.659C109.185 286.875 104.109 285.355 109.701 287.191C115.292 289.027 117.45 288.869 124.487 289.728C131.524 290.586 133.977 294.222 137.782 296.759C141.587 299.297 143.629 301.727 143.629 301.727" stroke="#A7592C" stroke-width="5.25319" stroke-miterlimit="1.5" stroke-linecap="round" stroke-linejoin="round"/>
<path d="M76.7343 281.742C70.3577 278.232 64.3276 277.049 60.4779 276.347C56.6281 275.646 57.1871 273.133 51.9267 270.494C46.6663 267.854 47.9715 269.746 42.375 265.395C36.7787 261.043 32.4755 261.893 27.988 261.01C23.5003 260.127 20.3391 260.411 20.3391 260.411" stroke="#A7592C" stroke-width="5.25319" stroke-miterlimit="1.5" stroke-linecap="round" stroke-linejoin="round"/>
<path fill-rule="evenodd" clip-rule="evenodd" d="M148.551 41.1398C148.551 41.1398 143.481 39.1024 144.255 35.0548C145.029 31.0065 148.857 30.1516 152.695 31.8926C156.533 33.6334 198.512 49.1027 204.374 52.0396C208.807 54.2602 210.711 55.9604 209.942 58.9906C209.172 62.0214 207.7 63.365 201.061 62.1917C194.42 61.0182 149.65 42.0367 148.551 41.1398Z" fill="#A7592C"/>
<path fill-rule="evenodd" clip-rule="evenodd" d="M182.776 225.311L168.884 258.996C123.634 242.814 78.8137 224.565 34.556 203.598L48.4478 169.913C80.2297 213.483 124.873 232.202 182.776 225.311Z" fill="#A7592C"/>
</svg>
