<svg width="341" height="264" viewBox="0 0 341 264" fill="none" xmlns="http://www.w3.org/2000/svg">
<path d="M112.904 64.6619C164.925 56.4852 220.194 48.1236 233.244 47.3733C246.31 46.6222 265.644 44.3752 281.707 42.3168C289.74 41.2875 296.957 40.3047 302.165 39.5797C304.769 39.2172 306.871 38.9191 308.322 38.7116C309.047 38.6078 309.61 38.5265 309.991 38.4713C310.177 38.4444 310.32 38.4232 310.417 38.409C313.907 65.7749 317.914 89.6706 322.224 116.277C326.537 142.899 331.153 172.239 335.862 210.49C335.773 210.507 335.642 210.531 335.472 210.563C335.117 210.628 334.588 210.725 333.891 210.851C332.498 211.105 330.431 211.478 327.74 211.957C322.356 212.913 314.471 214.289 304.467 215.97C284.46 219.332 255.979 223.91 222.08 228.777C188.18 233.645 140.531 240.491 101.357 246.12C81.7694 248.935 64.3007 251.446 51.729 253.253C45.4432 254.156 40.3814 254.883 36.8912 255.385C35.1461 255.636 33.7938 255.831 32.8778 255.962C32.42 256.028 32.0711 256.078 31.8367 256.112C31.7585 256.123 31.6929 256.132 31.6404 256.139C31.6321 256.059 31.6207 255.947 31.6062 255.807C31.5728 255.482 31.5239 255 31.4591 254.373C31.3295 253.116 31.1389 251.273 30.896 248.926C30.4102 244.231 29.7137 237.519 28.8731 229.451C27.1918 213.316 24.9327 191.758 22.6183 170.068C20.3039 148.378 17.935 126.555 16.0355 109.889C15.0857 101.557 14.2528 94.5122 13.6031 89.4184C13.2784 86.872 12.9988 84.8121 12.7735 83.322C12.6608 82.5772 12.5619 81.9731 12.4768 81.5218C12.4185 81.2124 12.3642 80.9672 12.3167 80.7961C12.409 80.781 12.5373 80.7607 12.7004 80.734C13.0702 80.6735 13.6198 80.5832 14.3371 80.466C15.7716 80.2316 17.879 79.8878 20.5703 79.4495C25.9532 78.5729 33.6723 77.319 43.0167 75.8095C61.7059 72.7905 86.8973 68.7498 112.904 64.6619Z" fill="#215E48" stroke="#215E48" stroke-width="0.308441"/>
<path d="M37.1835 252.397C37.0267 252.413 37.0267 252.412 37.0266 252.411C37.0265 252.41 37.0261 252.409 37.0259 252.406C37.0255 252.402 37.0249 252.395 37.0241 252.387C37.0225 252.37 37.0201 252.345 37.0171 252.311C37.011 252.243 37.0021 252.143 36.9913 252.01C36.9697 251.744 36.9403 251.35 36.9073 250.835C36.8413 249.805 36.7621 248.293 36.7108 246.362C36.6081 242.5 36.6156 236.962 37.0545 230.253C37.9322 216.837 40.5378 198.736 47.4479 180.004C61.2712 142.532 92.3218 102.54 161.197 92.4664C230.07 82.3928 273.555 111.48 299.814 143.085C312.942 158.884 321.763 175.313 327.304 187.791C330.074 194.03 332.025 199.282 333.282 202.975C333.911 204.821 334.367 206.278 334.665 207.273C334.815 207.771 334.925 208.154 334.998 208.412C335.034 208.541 335.061 208.639 335.079 208.705C335.087 208.738 335.095 208.762 335.099 208.779C335.101 208.787 335.103 208.794 335.104 208.798C335.104 208.8 335.105 208.802 335.105 208.803C335.106 208.804 335.106 208.804 334.954 208.845L335.106 208.805L335.147 208.958L334.992 208.998L334.989 208.998C334.987 208.999 334.983 209 334.979 209.001C334.971 209.003 334.957 209.007 334.94 209.011C334.906 209.02 334.854 209.033 334.787 209.05C334.652 209.084 334.45 209.135 334.186 209.201C333.657 209.333 332.874 209.528 331.862 209.777C329.838 210.277 326.894 210.996 323.22 211.873C315.873 213.629 305.6 216.019 293.9 218.56C270.502 223.641 241.39 229.325 218.549 231.731C195.719 234.136 150.382 239.342 110.753 243.946C90.9381 246.249 72.5505 248.4 59.1165 249.977C52.3995 250.765 46.9206 251.409 43.1212 251.856C41.2218 252.08 39.742 252.255 38.737 252.373C38.2346 252.433 37.8503 252.478 37.5922 252.508C37.4632 252.523 37.3656 252.535 37.3002 252.543C37.2676 252.547 37.2428 252.549 37.2264 252.551L37.2032 252.554L37.1835 252.397ZM37.1835 252.397L37.2013 252.555L37.0421 252.573L37.0269 252.413L37.1835 252.397ZM160.701 89.0391C231.132 78.7378 275.596 108.452 302.459 140.743C315.892 156.89 324.925 173.684 330.598 186.44C333.435 192.818 335.432 198.186 336.719 201.959C337.363 203.845 337.83 205.333 338.135 206.349C338.288 206.857 338.4 207.247 338.475 207.509C338.512 207.641 338.539 207.741 338.557 207.807C338.566 207.84 338.573 207.866 338.578 207.882C338.58 207.891 338.581 207.897 338.583 207.901C338.583 207.903 338.584 207.905 338.584 207.906L338.736 207.867L338.584 207.907C338.83 208.837 338.683 209.828 338.173 210.663C337.662 211.496 336.832 212.104 335.863 212.35L335.902 212.503C335.863 212.35 335.863 212.351 335.862 212.351L335.86 212.351C335.858 212.351 335.855 212.352 335.851 212.353C335.842 212.355 335.829 212.359 335.811 212.363C335.777 212.372 335.726 212.384 335.658 212.401C335.522 212.435 335.319 212.486 335.053 212.553C334.522 212.686 333.735 212.881 332.719 213.132C330.685 213.634 327.729 214.356 324.038 215.237C316.656 216.999 306.335 219.4 294.58 221.951C271.07 227.055 241.829 232.761 218.895 235.177C196.069 237.582 150.744 242.786 111.126 247.389C91.3167 249.691 72.9337 251.842 59.5033 253.418C52.7881 254.206 47.3104 254.851 43.5121 255.298C41.6131 255.522 40.1333 255.695 39.1287 255.814C38.6265 255.873 38.2429 255.918 37.9849 255.949C37.8559 255.964 37.7582 255.976 37.6929 255.983C37.6603 255.987 37.6356 255.99 37.6192 255.992C37.611 255.993 37.6048 255.993 37.6007 255.994C37.5986 255.994 37.5969 255.994 37.5958 255.995C37.5949 255.995 37.5953 256.002 37.6125 256.151L37.5949 255.995C36.5947 256.113 35.5928 255.837 34.8146 255.232C34.0367 254.627 33.5462 253.742 33.4525 252.778L33.296 252.794C33.4527 252.779 33.4525 252.778 33.4524 252.777C33.4523 252.776 33.4528 252.774 33.4526 252.772C33.4522 252.768 33.4516 252.761 33.4508 252.753C33.4492 252.736 33.4466 252.71 33.4436 252.676C33.4376 252.607 33.4281 252.505 33.4172 252.37C33.3953 252.099 33.366 251.696 33.3326 251.17C33.2657 250.118 33.1853 248.571 33.1339 246.594C33.0312 242.641 33.042 236.969 33.4958 230.099C34.4034 216.356 37.084 197.819 44.1731 178.64C58.3482 140.289 90.1514 99.3581 160.701 89.0391Z" fill="#215E48" stroke="#215E48" stroke-width="0.315123"/>
<path d="M161.139 93.0528C229.953 82.9878 273.487 112.77 299.825 145.07C312.995 161.223 321.866 178.007 327.443 190.752C330.232 197.125 332.197 202.488 333.465 206.257C334.099 208.141 334.559 209.627 334.86 210.641C335.01 211.149 335.121 211.538 335.194 211.801C335.222 211.9 335.244 211.981 335.261 212.043C335.246 212.047 335.229 212.052 335.212 212.056C335.077 212.091 334.875 212.142 334.611 212.209C334.081 212.342 333.298 212.539 332.285 212.791C330.26 213.295 327.316 214.02 323.64 214.906C316.288 216.676 306.009 219.087 294.302 221.647C270.886 226.768 241.762 232.483 218.913 234.871C196.053 237.26 150.663 242.441 110.988 247.026C91.1506 249.319 72.7416 251.462 59.2921 253.032C52.5674 253.817 47.0819 254.459 43.2781 254.904C41.3765 255.127 39.8947 255.301 38.8887 255.419C38.386 255.478 38.002 255.523 37.7437 255.553C37.6503 255.564 37.573 255.573 37.5127 255.58C37.5071 255.516 37.5001 255.433 37.4917 255.332C37.4695 255.062 37.4383 254.661 37.4039 254.137C37.335 253.089 37.2521 251.548 37.195 249.579C37.081 245.642 37.0708 239.993 37.4897 233.152C38.3276 219.468 40.8788 201.015 47.7304 181.935C61.4308 143.783 92.3261 103.117 161.139 93.0528Z" fill="#DFE9C9" stroke="#215E48" stroke-width="0.315123"/>
<path d="M105 181.115C105 181.115 125.976 203.241 176.161 194.443C226.347 185.646 239.334 151.067 239.334 151.067" stroke="#215E48" stroke-width="3.29554" stroke-miterlimit="1.5" stroke-linecap="round" stroke-linejoin="round"/>
<path d="M7.17268 46.7555L30.8113 256.717" stroke="#215E48" stroke-width="3.29554" stroke-miterlimit="1.5" stroke-linecap="round" stroke-linejoin="round"/>
<path d="M30.7505 257.397C30.7505 257.397 246.992 231.497 276.249 226.688C305.507 221.88 337.627 211.931 337.627 211.931L306.651 3.22695C306.651 3.22695 209.529 10.972 147.616 26.4355C85.7032 41.8994 7.14689 46.9348 7.14689 46.9348" stroke="#215E48" stroke-width="3.29554" stroke-miterlimit="1.5" stroke-linecap="round" stroke-linejoin="round"/>
<path d="M218.407 31.4908C218.407 31.4908 222.508 29.4699 232.34 29.5374C242.173 29.6052 242.646 29.4088 242.646 29.4088" stroke="#215E48" stroke-width="3.29554" stroke-miterlimit="1.5" stroke-linecap="round" stroke-linejoin="round"/>
<path d="M266.331 35.2254L280.978 14.4868" stroke="#215E48" stroke-width="3.29554" stroke-miterlimit="1.5" stroke-linecap="round" stroke-linejoin="round"/>
<path d="M260.969 19.2094C260.969 19.2094 280.115 24.0314 284.346 28.4086" stroke="#215E48" stroke-width="3.29554" stroke-miterlimit="1.5" stroke-linecap="round" stroke-linejoin="round"/>
<path d="M11.1509 80.1485C11.1509 80.1485 210.613 48.0518 237.216 46.5668C263.82 45.0817 311.011 37.5882 311.011 37.5882" stroke="#215E48" stroke-width="3.29554" stroke-miterlimit="1.5" stroke-linecap="round" stroke-linejoin="round"/>
<path fill-rule="evenodd" clip-rule="evenodd" d="M135.379 151.251C135.379 151.251 132.857 162.892 142.407 160.782C154.054 158.209 141.614 139.054 135.379 151.251Z" fill="#215E48" stroke="#215E48" stroke-width="3.29554" stroke-miterlimit="1.5" stroke-linecap="round" stroke-linejoin="round"/>
<path fill-rule="evenodd" clip-rule="evenodd" d="M189.075 139.595C189.075 139.595 186.553 151.236 196.103 149.126C207.749 146.553 195.309 127.398 189.075 139.595Z" fill="#215E48" stroke="#215E48" stroke-width="3.29554" stroke-miterlimit="1.5" stroke-linecap="round" stroke-linejoin="round"/>
</svg>
