<svg width="825" height="684" viewBox="0 0 825 684" fill="none" xmlns="http://www.w3.org/2000/svg">
<path d="M433.892 14.428C568.739 -21.7037 670.388 13.158 736.588 84.1496C797.52 149.495 820.089 236.441 824.086 295.454L824.256 312.659V640.085H679.477V511.641C639.26 540.053 596.52 566.98 555.078 590.44C509.946 615.987 464.645 638.419 423.835 654.685C385.425 669.994 362.036 683.226 306.381 683.226C250.727 683.226 177.124 667.331 115.276 624.514C50.2144 579.471 0.00103527 505.299 0 399.344C0 300.481 32.9135 218.88 111.713 154.107C184.569 94.2195 292.639 52.2766 433.892 14.428ZM144.778 399.344C144.779 453.129 167.688 484.71 197.685 505.477C230.895 528.468 277.375 540.951 306.381 538.448C335.388 535.945 353.038 532.684 371.554 523.615C390.07 514.547 579.781 422.095 630.7 376.43C681.618 330.766 674.509 282.559 674.509 282.559C671.572 244.818 661.326 215.727 630.7 182.883C604.828 155.14 560.137 130.488 471.359 154.277C333.079 191.329 251.029 227.008 203.651 265.952C162.216 300.011 144.778 338.462 144.778 399.344Z" fill="#2A785B"/>
</svg>
